<svg width="1440" height="1024" viewBox="0 0 1440 1024" fill="none" xmlns="http://www.w3.org/2000/svg">
<g clip-path="url(#clip0)">
<rect width="1440" height="1024" fill="white"/>
<g clip-path="url(#clip1)">
<circle opacity="0.6" cx="1290" cy="166" r="203" fill="#8C30F5"/>
<circle opacity="0.6" cx="913" cy="548" r="84" fill="#2EC5CE"/>
<g filter="url(#filter0_b)">
<path d="M0 0H1440V572L0 752V0Z" fill="#F2F7FF" fill-opacity="0.7"/>
</g>
<path d="M1260 594.005L1680 541.488V605.488L1260 658.005V594.005Z" fill="#75E3EA"/>
<path d="M828 584.808L1440 508V572L828 648.808V584.808Z" fill="#D6B1FF"/>
<path d="M988 500.517L1408 448V512L988 564.517V500.517Z" fill="#F1E4FF"/>
<path d="M0 688.016L420 635.499V699.499L0 752.016V688.016Z" fill="#75E3EA"/>
<path d="M-152 771.005L268 718.488V782.488L-152 835.005V771.005Z" fill="#F1E4FF"/>
</g>
<path d="M211.64 259.08C216.632 259.08 220.964 258 224.636 255.84C228.308 253.656 231.152 250.644 233.168 246.804C235.184 242.964 236.192 238.56 236.192 233.592C236.192 233.472 236.18 233.016 236.156 232.224C236.132 231.432 236.096 230.88 236.048 230.568H217.4V238.128H225.608C224.816 242.232 223.232 245.232 220.856 247.128C218.504 249.024 215.648 249.936 212.288 249.864C207.368 249.792 203.672 248.16 201.2 244.968C198.752 241.776 197.528 237.48 197.528 232.08C197.528 226.68 198.752 222.348 201.2 219.084C203.672 215.82 207.368 214.224 212.288 214.296C215.6 214.32 218.312 215.244 220.424 217.068C222.56 218.868 224.096 221.28 225.032 224.304L235.04 222.864C233.744 217.2 231.188 212.82 227.372 209.724C223.556 206.628 218.312 205.08 211.64 205.08C207.128 205.08 203.012 206.136 199.292 208.248C195.596 210.36 192.644 213.432 190.436 217.464C188.252 221.472 187.16 226.344 187.16 232.08C187.16 236.472 187.808 240.348 189.104 243.708C190.424 247.068 192.212 249.888 194.468 252.168C196.748 254.448 199.364 256.176 202.316 257.352C205.268 258.504 208.376 259.08 211.64 259.08ZM261.479 259.08C265.223 259.08 268.667 258.096 271.811 256.128C274.979 254.16 277.295 251.4 278.759 247.848L268.967 245.04C267.479 248.304 264.791 249.936 260.903 249.936C258.239 249.936 256.139 249.192 254.603 247.704C253.091 246.216 252.155 244.08 251.795 241.296H279.083C279.491 236.592 279.011 232.5 277.643 229.02C276.275 225.54 274.163 222.84 271.307 220.92C268.451 219 264.983 218.04 260.903 218.04C257.063 218.04 253.667 218.916 250.715 220.668C247.763 222.396 245.447 224.832 243.767 227.976C242.087 231.12 241.247 234.816 241.247 239.064C241.247 242.952 242.099 246.408 243.803 249.432C245.531 252.432 247.907 254.796 250.931 256.524C253.979 258.228 257.495 259.08 261.479 259.08ZM261.335 226.536C263.687 226.536 265.487 227.124 266.735 228.3C268.007 229.476 268.823 231.384 269.183 234.024H252.047C253.079 229.032 256.175 226.536 261.335 226.536ZM310.54 258V249.864C308.236 250.176 306.136 250.272 304.24 250.152C302.344 250.032 300.964 249.288 300.1 247.92C299.644 247.2 299.392 246.24 299.344 245.04C299.32 243.816 299.308 242.448 299.308 240.936V226.68H310.54V219.12H299.308V208.32H289.516V219.12H282.892V226.68H289.516V241.512C289.516 243.84 289.54 245.928 289.588 247.776C289.636 249.6 290.14 251.4 291.1 253.176C292.156 255.072 293.692 256.452 295.708 257.316C297.748 258.156 300.052 258.6 302.62 258.648C305.212 258.72 307.852 258.504 310.54 258ZM334.338 258H344.13V206.16H334.338V258ZM354.851 258H364.787V238.272C364.787 235.848 365.051 233.904 365.579 232.44C366.131 230.976 366.827 229.872 367.667 229.128C368.507 228.36 369.407 227.844 370.367 227.58C371.327 227.316 372.227 227.184 373.067 227.184C375.155 227.184 376.763 227.652 377.891 228.588C379.043 229.524 379.871 230.688 380.375 232.08C380.879 233.472 381.179 234.864 381.275 236.256C381.371 237.624 381.419 238.752 381.419 239.64V258H391.355V236.184C391.355 235.536 391.307 234.504 391.211 233.088C391.115 231.672 390.839 230.112 390.383 228.408C389.927 226.68 389.159 225.024 388.079 223.44C387.023 221.856 385.535 220.548 383.615 219.516C381.695 218.484 379.211 217.968 376.163 217.968C373.355 217.968 370.907 218.436 368.819 219.372C366.731 220.308 364.979 221.556 363.563 223.116V219.12H354.851V258ZM415.888 259.08C420.976 259.08 424.96 257.94 427.84 255.66C430.72 253.38 432.16 250.248 432.16 246.264C432.16 243.24 431.224 240.852 429.352 239.1C427.504 237.348 424.36 235.896 419.92 234.744C416.896 233.976 414.64 233.352 413.152 232.872C411.688 232.392 410.716 231.924 410.236 231.468C409.78 231.012 409.552 230.448 409.552 229.776C409.552 228.648 410.092 227.784 411.172 227.184C412.276 226.584 413.728 226.344 415.528 226.464C419.344 226.752 421.432 228.384 421.792 231.36L431.8 229.56C431.296 226.032 429.568 223.236 426.616 221.172C423.664 219.084 419.896 218.04 415.312 218.04C410.608 218.04 406.852 219.144 404.044 221.352C401.236 223.56 399.832 226.536 399.832 230.28C399.832 233.256 400.804 235.608 402.748 237.336C404.692 239.04 408.04 240.504 412.792 241.728C415.6 242.472 417.664 243.072 418.984 243.528C420.328 243.984 421.192 244.452 421.576 244.932C421.96 245.388 422.152 246 422.152 246.768C422.152 247.992 421.672 248.952 420.712 249.648C419.752 250.32 418.384 250.656 416.608 250.656C414.448 250.656 412.66 250.14 411.244 249.108C409.852 248.076 408.952 246.648 408.544 244.824L398.536 246.336C399.184 250.392 401.008 253.536 404.008 255.768C407.032 257.976 410.992 259.08 415.888 259.08ZM463.399 258V249.864C461.095 250.176 458.995 250.272 457.099 250.152C455.203 250.032 453.823 249.288 452.959 247.92C452.503 247.2 452.251 246.24 452.203 245.04C452.179 243.816 452.167 242.448 452.167 240.936V226.68H463.399V219.12H452.167V208.32H442.375V219.12H435.751V226.68H442.375V241.512C442.375 243.84 442.399 245.928 442.447 247.776C442.495 249.6 442.999 251.4 443.959 253.176C445.015 255.072 446.551 256.452 448.567 257.316C450.607 258.156 452.911 258.6 455.479 258.648C458.071 258.72 460.711 258.504 463.399 258ZM482.863 259.08C485.863 259.08 488.383 258.624 490.423 257.712C492.487 256.776 494.383 255.288 496.111 253.248V258H504.679V234.24C504.679 232.464 504.607 230.856 504.463 229.416C504.319 227.976 503.863 226.536 503.095 225.096C501.727 222.504 499.711 220.68 497.047 219.624C494.383 218.568 491.335 218.04 487.903 218.04C483.223 218.04 479.527 219.048 476.815 221.064C474.103 223.08 472.255 225.696 471.271 228.912L480.127 231.72C480.751 229.944 481.843 228.708 483.403 228.012C484.963 227.316 486.463 226.968 487.903 226.968C490.207 226.968 491.923 227.4 493.051 228.264C494.179 229.104 494.839 230.436 495.031 232.26C491.383 232.788 488.167 233.304 485.383 233.808C482.599 234.288 480.271 234.864 478.399 235.536C475.279 236.688 473.083 238.26 471.811 240.252C470.539 242.22 469.903 244.56 469.903 247.272C469.903 249.432 470.395 251.412 471.379 253.212C472.387 254.988 473.851 256.416 475.771 257.496C477.715 258.552 480.079 259.08 482.863 259.08ZM484.951 251.376C483.271 251.376 481.939 251.004 480.955 250.26C479.971 249.492 479.479 248.448 479.479 247.128C479.479 246.144 479.791 245.304 480.415 244.608C481.039 243.888 482.071 243.24 483.511 242.664C484.615 242.256 485.971 241.884 487.579 241.548C489.211 241.188 491.671 240.732 494.959 240.18C494.935 241.116 494.863 242.148 494.743 243.276C494.623 244.38 494.359 245.352 493.951 246.192C493.687 246.744 493.183 247.428 492.439 248.244C491.719 249.06 490.735 249.792 489.487 250.44C488.263 251.064 486.751 251.376 484.951 251.376ZM513.968 258H523.904V238.272C523.904 235.848 524.168 233.904 524.696 232.44C525.248 230.976 525.944 229.872 526.784 229.128C527.624 228.36 528.524 227.844 529.484 227.58C530.444 227.316 531.344 227.184 532.184 227.184C534.272 227.184 535.88 227.652 537.008 228.588C538.16 229.524 538.988 230.688 539.492 232.08C539.996 233.472 540.296 234.864 540.392 236.256C540.488 237.624 540.536 238.752 540.536 239.64V258H550.472V236.184C550.472 235.536 550.424 234.504 550.328 233.088C550.232 231.672 549.956 230.112 549.5 228.408C549.044 226.68 548.276 225.024 547.196 223.44C546.14 221.856 544.652 220.548 542.732 219.516C540.812 218.484 538.328 217.968 535.28 217.968C532.472 217.968 530.024 218.436 527.936 219.372C525.848 220.308 524.096 221.556 522.68 223.116V219.12H513.968V258ZM583.141 258V249.864C580.837 250.176 578.737 250.272 576.841 250.152C574.945 250.032 573.565 249.288 572.701 247.92C572.245 247.2 571.993 246.24 571.945 245.04C571.921 243.816 571.909 242.448 571.909 240.936V226.68H583.141V219.12H571.909V208.32H562.117V219.12H555.493V226.68H562.117V241.512C562.117 243.84 562.141 245.928 562.189 247.776C562.237 249.6 562.741 251.4 563.701 253.176C564.757 255.072 566.293 256.452 568.309 257.316C570.349 258.156 572.653 258.6 575.221 258.648C577.813 258.72 580.453 258.504 583.141 258ZM606.22 258H616.012V236.616H639.196V258H648.988V206.16H639.196V227.472H616.012V206.16H606.22V258ZM677.167 259.08C680.911 259.08 684.355 258.096 687.499 256.128C690.667 254.16 692.983 251.4 694.447 247.848L684.655 245.04C683.167 248.304 680.479 249.936 676.591 249.936C673.927 249.936 671.827 249.192 670.291 247.704C668.779 246.216 667.843 244.08 667.483 241.296H694.771C695.179 236.592 694.699 232.5 693.331 229.02C691.963 225.54 689.851 222.84 686.995 220.92C684.139 219 680.671 218.04 676.591 218.04C672.751 218.04 669.355 218.916 666.403 220.668C663.451 222.396 661.135 224.832 659.455 227.976C657.775 231.12 656.935 234.816 656.935 239.064C656.935 242.952 657.787 246.408 659.491 249.432C661.219 252.432 663.595 254.796 666.619 256.524C669.667 258.228 673.183 259.08 677.167 259.08ZM677.023 226.536C679.375 226.536 681.175 227.124 682.423 228.3C683.695 229.476 684.511 231.384 684.871 234.024H667.735C668.767 229.032 671.863 226.536 677.023 226.536ZM703.619 258H713.411V205.08H703.619V258ZM724.132 275.28H733.996V256.596C735.268 257.388 736.672 258 738.208 258.432C739.768 258.864 741.46 259.08 743.284 259.08C746.86 259.08 749.992 258.18 752.68 256.38C755.368 254.58 757.456 252.132 758.944 249.036C760.456 245.94 761.212 242.448 761.212 238.56C761.212 234.6 760.444 231.084 758.908 228.012C757.396 224.916 755.26 222.48 752.5 220.704C749.74 218.928 746.5 218.04 742.78 218.04C740.764 218.04 738.916 218.328 737.236 218.904C735.58 219.456 734.092 220.248 732.772 221.28V219.12H724.132V275.28ZM741.7 250.368C738.436 250.368 736.132 249.288 734.788 247.128C733.444 244.944 732.772 242.088 732.772 238.56C732.772 235.032 733.432 232.188 734.752 230.028C736.096 227.844 738.292 226.752 741.34 226.752C743.524 226.752 745.312 227.292 746.704 228.372C748.12 229.428 749.164 230.856 749.836 232.656C750.508 234.432 750.844 236.4 750.844 238.56C750.844 240.744 750.52 242.736 749.872 244.536C749.224 246.312 748.228 247.728 746.884 248.784C745.54 249.84 743.812 250.368 741.7 250.368ZM190.04 356H199.976V321.44L222.512 356H232.448V304.16H222.512V338.72L199.976 304.16H190.04V356ZM260.565 357.08C264.309 357.08 267.753 356.096 270.897 354.128C274.065 352.16 276.381 349.4 277.845 345.848L268.053 343.04C266.565 346.304 263.877 347.936 259.989 347.936C257.325 347.936 255.225 347.192 253.689 345.704C252.177 344.216 251.241 342.08 250.881 339.296H278.169C278.577 334.592 278.097 330.5 276.729 327.02C275.361 323.54 273.249 320.84 270.393 318.92C267.537 317 264.069 316.04 259.989 316.04C256.149 316.04 252.753 316.916 249.801 318.668C246.849 320.396 244.533 322.832 242.853 325.976C241.173 329.12 240.333 332.816 240.333 337.064C240.333 340.952 241.185 344.408 242.889 347.432C244.617 350.432 246.993 352.796 250.017 354.524C253.065 356.228 256.581 357.08 260.565 357.08ZM260.421 324.536C262.773 324.536 264.573 325.124 265.821 326.3C267.093 327.476 267.909 329.384 268.269 332.024H251.133C252.165 327.032 255.261 324.536 260.421 324.536ZM296.395 357.08C299.395 357.08 301.915 356.624 303.955 355.712C306.019 354.776 307.915 353.288 309.643 351.248V356H318.211V332.24C318.211 330.464 318.139 328.856 317.995 327.416C317.851 325.976 317.395 324.536 316.627 323.096C315.259 320.504 313.243 318.68 310.579 317.624C307.915 316.568 304.867 316.04 301.435 316.04C296.755 316.04 293.059 317.048 290.347 319.064C287.635 321.08 285.787 323.696 284.803 326.912L293.659 329.72C294.283 327.944 295.375 326.708 296.935 326.012C298.495 325.316 299.995 324.968 301.435 324.968C303.739 324.968 305.455 325.4 306.583 326.264C307.711 327.104 308.371 328.436 308.563 330.26C304.915 330.788 301.699 331.304 298.915 331.808C296.131 332.288 293.803 332.864 291.931 333.536C288.811 334.688 286.615 336.26 285.343 338.252C284.071 340.22 283.435 342.56 283.435 345.272C283.435 347.432 283.927 349.412 284.911 351.212C285.919 352.988 287.383 354.416 289.303 355.496C291.247 356.552 293.611 357.08 296.395 357.08ZM298.483 349.376C296.803 349.376 295.471 349.004 294.487 348.26C293.503 347.492 293.011 346.448 293.011 345.128C293.011 344.144 293.323 343.304 293.947 342.608C294.571 341.888 295.603 341.24 297.043 340.664C298.147 340.256 299.503 339.884 301.111 339.548C302.743 339.188 305.203 338.732 308.491 338.18C308.467 339.116 308.395 340.148 308.275 341.276C308.155 342.38 307.891 343.352 307.483 344.192C307.219 344.744 306.715 345.428 305.971 346.244C305.251 347.06 304.267 347.792 303.019 348.44C301.795 349.064 300.283 349.376 298.483 349.376ZM327.571 356H337.435V336.128C337.435 331.616 339.211 328.544 342.763 326.912C343.915 326.36 345.199 326.036 346.615 325.94C348.055 325.82 349.315 325.928 350.395 326.264V317.12C348.643 316.904 346.891 316.952 345.139 317.264C343.387 317.552 341.803 318.128 340.387 318.992C339.475 319.52 338.671 320.156 337.975 320.9C337.303 321.644 336.715 322.472 336.211 323.384V317.12H327.571V356ZM357.171 356H365.811V353.768C367.179 354.824 368.739 355.64 370.491 356.216C372.243 356.792 374.187 357.08 376.323 357.08C379.899 357.08 383.031 356.18 385.719 354.38C388.407 352.58 390.495 350.132 391.983 347.036C393.495 343.94 394.251 340.448 394.251 336.56C394.251 332.6 393.483 329.084 391.947 326.012C390.435 322.916 388.299 320.48 385.539 318.704C382.779 316.928 379.539 316.04 375.819 316.04C374.115 316.04 372.519 316.244 371.031 316.652C369.567 317.06 368.235 317.648 367.035 318.416V304.16H357.171V356ZM374.739 348.368C371.475 348.368 369.171 347.288 367.827 345.128C366.483 342.944 365.811 340.088 365.811 336.56C365.811 333.032 366.471 330.188 367.791 328.028C369.135 325.844 371.331 324.752 374.379 324.752C376.563 324.752 378.351 325.292 379.743 326.372C381.159 327.428 382.203 328.856 382.875 330.656C383.547 332.432 383.883 334.4 383.883 336.56C383.883 338.744 383.559 340.736 382.911 342.536C382.263 344.312 381.267 345.728 379.923 346.784C378.579 347.84 376.851 348.368 374.739 348.368ZM404.258 373.28H413.33L435.29 317.12H425.498L415.346 343.58L405.122 317.12H394.97L410.666 355.676L404.258 373.28Z" fill="#18191F"/>
<rect x="180" y="409" width="196" height="62" rx="8" fill="#8C30F5"/>
<path d="M235.391 448.3C236.784 448.3 237.981 448 238.981 447.4C239.981 446.793 240.747 445.963 241.281 444.91C241.821 443.857 242.091 442.65 242.091 441.29C242.091 441.25 242.087 441.127 242.081 440.92C242.074 440.713 242.064 440.557 242.051 440.45H236.951V442.34H239.491C239.304 443.58 238.871 444.51 238.191 445.13C237.511 445.743 236.627 446.043 235.541 446.03C234.094 446.01 233.007 445.527 232.281 444.58C231.554 443.633 231.194 442.373 231.201 440.8C231.207 439.747 231.371 438.827 231.691 438.04C232.011 437.253 232.491 436.643 233.131 436.21C233.771 435.777 234.574 435.567 235.541 435.58C236.494 435.587 237.281 435.843 237.901 436.35C238.527 436.857 238.977 437.537 239.251 438.39L241.711 438C241.344 436.52 240.641 435.367 239.601 434.54C238.567 433.713 237.164 433.3 235.391 433.3C234.111 433.3 232.961 433.597 231.941 434.19C230.927 434.783 230.124 435.64 229.531 436.76C228.944 437.88 228.651 439.227 228.651 440.8C228.651 442.4 228.951 443.76 229.551 444.88C230.157 445.993 230.971 446.843 231.991 447.43C233.011 448.01 234.144 448.3 235.391 448.3ZM249.009 448.3C250.049 448.3 250.999 448.033 251.859 447.5C252.726 446.96 253.366 446.2 253.779 445.22L251.399 444.5C250.919 445.527 250.076 446.04 248.869 446.04C248.049 446.04 247.403 445.803 246.929 445.33C246.456 444.85 246.173 444.163 246.079 443.27H253.899C253.993 441.97 253.849 440.843 253.469 439.89C253.089 438.937 252.506 438.2 251.719 437.68C250.939 437.16 249.989 436.9 248.869 436.9C247.809 436.9 246.876 437.14 246.069 437.62C245.263 438.093 244.633 438.767 244.179 439.64C243.726 440.513 243.499 441.54 243.499 442.72C243.499 443.813 243.729 444.78 244.189 445.62C244.656 446.46 245.303 447.117 246.129 447.59C246.956 448.063 247.916 448.3 249.009 448.3ZM248.969 439.01C249.716 439.01 250.289 439.207 250.689 439.6C251.096 439.987 251.353 440.603 251.459 441.45H246.139C246.426 439.823 247.369 439.01 248.969 439.01ZM262.46 448V445.98C261.787 446.08 261.187 446.107 260.66 446.06C260.134 446.013 259.75 445.79 259.51 445.39C259.384 445.183 259.314 444.917 259.3 444.59C259.294 444.257 259.29 443.877 259.29 443.45V439.09H262.46V437.2H259.29V434.2H256.89V437.2H254.93V439.09H256.89V443.59C256.89 444.21 256.897 444.763 256.91 445.25C256.924 445.73 257.054 446.203 257.3 446.67C257.58 447.183 257.99 447.56 258.53 447.8C259.07 448.033 259.68 448.157 260.36 448.17C261.047 448.19 261.747 448.133 262.46 448ZM268.787 448H271.197V441.92H278.017V448H280.417V433.6H278.017V439.66H271.197V433.6H268.787V448ZM288.13 448.3C289.17 448.3 290.12 448.033 290.98 447.5C291.847 446.96 292.487 446.2 292.9 445.22L290.52 444.5C290.04 445.527 289.197 446.04 287.99 446.04C287.17 446.04 286.524 445.803 286.05 445.33C285.577 444.85 285.294 444.163 285.2 443.27H293.02C293.114 441.97 292.97 440.843 292.59 439.89C292.21 438.937 291.627 438.2 290.84 437.68C290.06 437.16 289.11 436.9 287.99 436.9C286.93 436.9 285.997 437.14 285.19 437.62C284.384 438.093 283.754 438.767 283.3 439.64C282.847 440.513 282.62 441.54 282.62 442.72C282.62 443.813 282.85 444.78 283.31 445.62C283.777 446.46 284.424 447.117 285.25 447.59C286.077 448.063 287.037 448.3 288.13 448.3ZM288.09 439.01C288.837 439.01 289.41 439.207 289.81 439.6C290.217 439.987 290.474 440.603 290.58 441.45H285.26C285.547 439.823 286.49 439.01 288.09 439.01ZM295.452 448H297.862V433.3H295.452V448ZM300.837 452.8H303.267V447.45C303.634 447.717 304.047 447.923 304.507 448.07C304.974 448.223 305.487 448.3 306.047 448.3C307.047 448.3 307.914 448.05 308.647 447.55C309.387 447.05 309.96 446.37 310.367 445.51C310.774 444.65 310.977 443.68 310.977 442.6C310.977 441.507 310.77 440.53 310.357 439.67C309.95 438.81 309.37 438.133 308.617 437.64C307.864 437.147 306.977 436.9 305.957 436.9C305.344 436.9 304.787 436.993 304.287 437.18C303.787 437.367 303.347 437.633 302.967 437.98V437.2H300.837V452.8ZM305.677 446.14C304.71 446.14 304.017 445.813 303.597 445.16C303.177 444.5 302.967 443.647 302.967 442.6C302.967 441.547 303.174 440.693 303.587 440.04C304.007 439.387 304.677 439.06 305.597 439.06C306.244 439.06 306.774 439.22 307.187 439.54C307.607 439.853 307.917 440.28 308.117 440.82C308.324 441.353 308.427 441.947 308.427 442.6C308.427 443.26 308.327 443.857 308.127 444.39C307.934 444.923 307.634 445.35 307.227 445.67C306.82 445.983 306.304 446.14 305.677 446.14ZM312.981 442.64H318.981V440.75H312.981V442.64ZM324.08 448H326.54V433.6H324.08L321.38 435.22V437.88L324.08 436.23V448Z" fill="white"/>
<path d="M36.5753 46.0001H46.0685C50.57 46.0001 54.2192 42.3509 54.2192 37.8494H44.726C40.2245 37.8494 36.5753 41.4986 36.5753 46.0001Z" fill="#F22BB2"/>
<path d="M37 26.1507V38.137C41.5015 38.137 45.1507 34.4878 45.1507 29.9863V18C40.6492 18 37 21.6492 37 26.1507Z" fill="#8C30F5"/>
<path d="M63.4246 18H53.9314C49.4299 18 45.7808 21.6492 45.7808 26.1507H55.2739C59.7754 26.1507 63.4246 22.5015 63.4246 18Z" fill="#FE9A22"/>
<path d="M63.4246 37.3698V25.3835C58.9231 25.3835 55.2739 29.0327 55.2739 33.5342V45.5205C59.7754 45.5205 63.4246 41.8713 63.4246 37.3698Z" fill="#2EC5CE"/>
<path d="M121.23 54C120.686 54 120.238 53.824 119.886 53.472C119.534 53.12 119.358 52.672 119.358 52.128V18.384C119.358 17.84 119.534 17.392 119.886 17.04C120.238 16.688 120.686 16.512 121.23 16.512C121.774 16.512 122.222 16.688 122.574 17.04C122.926 17.392 123.102 17.84 123.102 18.384V52.128C123.102 52.672 122.926 53.12 122.574 53.472C122.222 53.824 121.774 54 121.23 54ZM133.389 54C132.813 54 132.349 53.84 131.997 53.52C131.677 53.168 131.517 52.72 131.517 52.176V29.616C131.517 29.04 131.677 28.592 131.997 28.272C132.349 27.92 132.813 27.744 133.389 27.744C133.933 27.744 134.365 27.92 134.685 28.272C135.037 28.592 135.213 29.04 135.213 29.616V31.248C136.237 30.064 137.501 29.136 139.005 28.464C140.541 27.792 142.189 27.456 143.949 27.456C146.221 27.456 148.253 27.936 150.045 28.896C151.837 29.824 153.245 31.2 154.269 33.024C155.325 34.848 155.853 37.072 155.853 39.696V52.176C155.853 52.688 155.677 53.12 155.325 53.472C154.973 53.824 154.541 54 154.029 54C153.485 54 153.037 53.824 152.685 53.472C152.333 53.12 152.157 52.688 152.157 52.176V39.696C152.157 36.72 151.325 34.528 149.661 33.12C148.029 31.68 145.997 30.96 143.565 30.96C141.997 30.96 140.573 31.264 139.293 31.872C138.045 32.48 137.053 33.312 136.317 34.368C135.581 35.424 135.213 36.624 135.213 37.968V52.176C135.213 52.72 135.037 53.168 134.685 53.52C134.365 53.84 133.933 54 133.389 54ZM165.634 54C165.09 54 164.642 53.824 164.29 53.472C163.938 53.12 163.762 52.672 163.762 52.128V18.384C163.762 17.84 163.938 17.392 164.29 17.04C164.642 16.688 165.09 16.512 165.634 16.512C166.21 16.512 166.69 16.736 167.074 17.184L190.018 47.328V18.384C190.018 17.84 190.194 17.392 190.546 17.04C190.898 16.688 191.346 16.512 191.89 16.512C192.402 16.512 192.834 16.688 193.186 17.04C193.57 17.392 193.762 17.84 193.762 18.384V52.128C193.762 52.672 193.57 53.12 193.186 53.472C192.834 53.824 192.402 54 191.89 54C191.282 54 190.818 53.792 190.498 53.376L167.506 23.232V52.128C167.506 52.672 167.314 53.12 166.93 53.472C166.578 53.824 166.146 54 165.634 54ZM214.075 54.24C211.483 54.24 209.179 53.68 207.163 52.56C205.179 51.408 203.611 49.824 202.459 47.808C201.339 45.792 200.779 43.488 200.779 40.896C200.779 38.272 201.307 35.968 202.363 33.984C203.451 31.968 204.939 30.384 206.827 29.232C208.715 28.08 210.891 27.504 213.355 27.504C215.787 27.504 217.899 28.064 219.691 29.184C221.515 30.272 222.923 31.792 223.915 33.744C224.907 35.696 225.403 37.92 225.403 40.416C225.403 40.928 225.243 41.344 224.923 41.664C224.603 41.952 224.187 42.096 223.675 42.096H204.283C204.475 43.824 205.003 45.36 205.867 46.704C206.731 48.016 207.867 49.056 209.275 49.824C210.683 50.56 212.283 50.928 214.075 50.928C215.227 50.928 216.379 50.736 217.531 50.352C218.715 49.936 219.659 49.424 220.363 48.816C220.715 48.528 221.115 48.384 221.563 48.384C222.011 48.352 222.395 48.464 222.715 48.72C223.131 49.104 223.339 49.52 223.339 49.968C223.371 50.416 223.195 50.8 222.811 51.12C221.755 52.016 220.411 52.768 218.779 53.376C217.147 53.952 215.579 54.24 214.075 54.24ZM213.355 30.816C210.891 30.816 208.859 31.584 207.259 33.12C205.659 34.624 204.699 36.592 204.379 39.024H221.947C221.691 36.592 220.795 34.624 219.259 33.12C217.755 31.584 215.787 30.816 213.355 30.816ZM241.902 54.24C239.31 54.24 237.006 53.68 234.99 52.56C233.006 51.408 231.438 49.824 230.286 47.808C229.166 45.792 228.606 43.488 228.606 40.896C228.606 38.272 229.134 35.968 230.19 33.984C231.278 31.968 232.766 30.384 234.654 29.232C236.542 28.08 238.718 27.504 241.182 27.504C243.614 27.504 245.726 28.064 247.518 29.184C249.342 30.272 250.75 31.792 251.742 33.744C252.734 35.696 253.23 37.92 253.23 40.416C253.23 40.928 253.07 41.344 252.75 41.664C252.43 41.952 252.014 42.096 251.502 42.096H232.11C232.302 43.824 232.83 45.36 233.694 46.704C234.558 48.016 235.694 49.056 237.102 49.824C238.51 50.56 240.11 50.928 241.902 50.928C243.054 50.928 244.206 50.736 245.358 50.352C246.542 49.936 247.486 49.424 248.19 48.816C248.542 48.528 248.942 48.384 249.39 48.384C249.838 48.352 250.222 48.464 250.542 48.72C250.958 49.104 251.166 49.52 251.166 49.968C251.198 50.416 251.022 50.8 250.638 51.12C249.582 52.016 248.238 52.768 246.606 53.376C244.974 53.952 243.406 54.24 241.902 54.24ZM241.182 30.816C238.718 30.816 236.686 31.584 235.086 33.12C233.486 34.624 232.526 36.592 232.206 39.024H249.774C249.518 36.592 248.622 34.624 247.086 33.12C245.582 31.584 243.614 30.816 241.182 30.816ZM269.777 54.24C267.249 54.24 264.977 53.664 262.961 52.512C260.945 51.328 259.345 49.728 258.161 47.712C257.009 45.696 256.433 43.408 256.433 40.848C256.433 38.32 256.993 36.048 258.113 34.032C259.265 32.016 260.817 30.432 262.769 29.28C264.721 28.096 266.929 27.504 269.393 27.504C271.537 27.504 273.473 27.968 275.201 28.896C276.929 29.792 278.321 30.992 279.377 32.496V18.384C279.377 17.808 279.553 17.36 279.905 17.04C280.257 16.688 280.705 16.512 281.249 16.512C281.793 16.512 282.241 16.688 282.593 17.04C282.945 17.36 283.121 17.808 283.121 18.384V41.04C283.057 43.536 282.433 45.792 281.249 47.808C280.097 49.792 278.513 51.36 276.497 52.512C274.513 53.664 272.273 54.24 269.777 54.24ZM269.777 50.88C271.633 50.88 273.281 50.448 274.721 49.584C276.193 48.688 277.345 47.488 278.177 45.984C279.041 44.48 279.473 42.768 279.473 40.848C279.473 38.96 279.041 37.264 278.177 35.76C277.345 34.224 276.193 33.024 274.721 32.16C273.281 31.296 271.633 30.864 269.777 30.864C267.953 30.864 266.305 31.296 264.833 32.16C263.361 33.024 262.193 34.224 261.329 35.76C260.465 37.264 260.033 38.96 260.033 40.848C260.033 42.768 260.465 44.48 261.329 45.984C262.193 47.488 263.361 48.688 264.833 49.584C266.305 50.448 267.953 50.88 269.777 50.88Z" fill="black"/>
<rect x="438" y="409" width="196" height="62" rx="8" fill="#8C30F5"/>
<path d="M525.674 448.3C527.067 448.3 528.264 448 529.264 447.4C530.264 446.793 531.031 445.963 531.564 444.91C532.104 443.857 532.374 442.65 532.374 441.29C532.374 441.25 532.371 441.127 532.364 440.92C532.357 440.713 532.347 440.557 532.334 440.45H527.234V442.34H529.774C529.587 443.58 529.154 444.51 528.474 445.13C527.794 445.743 526.911 446.043 525.824 446.03C524.377 446.01 523.291 445.527 522.564 444.58C521.837 443.633 521.477 442.373 521.484 440.8C521.491 439.747 521.654 438.827 521.974 438.04C522.294 437.253 522.774 436.643 523.414 436.21C524.054 435.777 524.857 435.567 525.824 435.58C526.777 435.587 527.564 435.843 528.184 436.35C528.811 436.857 529.261 437.537 529.534 438.39L531.994 438C531.627 436.52 530.924 435.367 529.884 434.54C528.851 433.713 527.447 433.3 525.674 433.3C524.394 433.3 523.244 433.597 522.224 434.19C521.211 434.783 520.407 435.64 519.814 436.76C519.227 437.88 518.934 439.227 518.934 440.8C518.934 442.4 519.234 443.76 519.834 444.88C520.441 445.993 521.254 446.843 522.274 447.43C523.294 448.01 524.427 448.3 525.674 448.3ZM539.292 448.3C540.332 448.3 541.282 448.033 542.142 447.5C543.009 446.96 543.649 446.2 544.062 445.22L541.682 444.5C541.202 445.527 540.359 446.04 539.152 446.04C538.332 446.04 537.686 445.803 537.212 445.33C536.739 444.85 536.456 444.163 536.362 443.27H544.182C544.276 441.97 544.132 440.843 543.752 439.89C543.372 438.937 542.789 438.2 542.002 437.68C541.222 437.16 540.272 436.9 539.152 436.9C538.092 436.9 537.159 437.14 536.352 437.62C535.546 438.093 534.916 438.767 534.462 439.64C534.009 440.513 533.782 441.54 533.782 442.72C533.782 443.813 534.012 444.78 534.472 445.62C534.939 446.46 535.586 447.117 536.412 447.59C537.239 448.063 538.199 448.3 539.292 448.3ZM539.252 439.01C539.999 439.01 540.572 439.207 540.972 439.6C541.379 439.987 541.636 440.603 541.742 441.45H536.422C536.709 439.823 537.652 439.01 539.252 439.01ZM552.744 448V445.98C552.07 446.08 551.47 446.107 550.944 446.06C550.417 446.013 550.034 445.79 549.794 445.39C549.667 445.183 549.597 444.917 549.584 444.59C549.577 444.257 549.574 443.877 549.574 443.45V439.09H552.744V437.2H549.574V434.2H547.174V437.2H545.214V439.09H547.174V443.59C547.174 444.21 547.18 444.763 547.194 445.25C547.207 445.73 547.337 446.203 547.584 446.67C547.864 447.183 548.274 447.56 548.814 447.8C549.354 448.033 549.964 448.157 550.644 448.17C551.33 448.19 552.03 448.133 552.744 448Z" fill="white"/>
</g>
<defs>
<filter id="filter0_b" x="-100" y="-100" width="1640" height="952" filterUnits="userSpaceOnUse" color-interpolation-filters="sRGB">
<feFlood flood-opacity="0" result="BackgroundImageFix"/>
<feGaussianBlur in="BackgroundImage" stdDeviation="50"/>
<feComposite in2="SourceAlpha" operator="in" result="effect1_backgroundBlur"/>
<feBlend mode="normal" in="SourceGraphic" in2="effect1_backgroundBlur" result="shape"/>
</filter>
<clipPath id="clip0">
<rect width="1440" height="1024" fill="white"/>
</clipPath>
<clipPath id="clip1">
<rect width="1440" height="866" fill="white"/>
</clipPath>
</defs>
</svg>
