<svg width="540" height="136" viewBox="0 0 540 136" fill="none" xmlns="http://www.w3.org/2000/svg">
<path d="M130.739 50.72C134.195 50.72 137.171 49.968 139.667 48.464C142.179 46.96 144.107 44.856 145.451 42.152C146.811 39.448 147.491 36.304 147.491 32.72C147.491 29.136 146.811 25.992 145.451 23.288C144.107 20.584 142.179 18.48 139.667 16.976C137.171 15.472 134.195 14.72 130.739 14.72C127.283 14.72 124.299 15.472 121.787 16.976C119.291 18.48 117.363 20.584 116.003 23.288C114.659 25.992 113.987 29.136 113.987 32.72C113.987 36.304 114.659 39.448 116.003 42.152C117.363 44.856 119.291 46.96 121.787 48.464C124.299 49.968 127.283 50.72 130.739 50.72ZM130.739 44.576C127.459 44.528 124.995 43.44 123.347 41.312C121.715 39.184 120.899 36.32 120.899 32.72C120.899 29.12 121.715 26.232 123.347 24.056C124.995 21.88 127.459 20.816 130.739 20.864C134.035 20.912 136.499 22 138.131 24.128C139.763 26.256 140.579 29.12 140.579 32.72C140.579 36.32 139.763 39.208 138.131 41.384C136.499 43.56 134.035 44.624 130.739 44.576ZM161.93 50.768C163.802 50.768 165.434 50.456 166.826 49.832C168.218 49.208 169.386 48.376 170.33 47.336V50H176.09V24.08H169.514V37.232C169.514 38.832 169.33 40.128 168.962 41.12C168.61 42.096 168.154 42.84 167.594 43.352C167.034 43.848 166.434 44.184 165.794 44.36C165.154 44.536 164.554 44.624 163.994 44.624C162.602 44.624 161.522 44.312 160.754 43.688C160.002 43.064 159.458 42.288 159.122 41.36C158.786 40.432 158.586 39.512 158.522 38.6C158.458 37.672 158.426 36.912 158.426 36.32V24.08H151.802V38.624C151.802 39.056 151.834 39.744 151.898 40.688C151.962 41.632 152.146 42.68 152.45 43.832C152.754 44.968 153.258 46.064 153.962 47.12C154.682 48.176 155.682 49.048 156.962 49.736C158.242 50.424 159.898 50.768 161.93 50.768ZM182.798 50H189.374V36.752C189.374 33.744 190.558 31.696 192.926 30.608C193.694 30.24 194.55 30.024 195.494 29.96C196.454 29.88 197.294 29.952 198.014 30.176V24.08C196.846 23.936 195.678 23.968 194.51 24.176C193.342 24.368 192.286 24.752 191.342 25.328C190.734 25.68 190.198 26.104 189.734 26.6C189.286 27.096 188.894 27.648 188.558 28.256V24.08H182.798V50ZM202.099 37.376H216.499V32.336H202.099V37.376ZM222.735 50H229.263V35.984H240.975V29.456H229.263V21.968H243.855V15.44H222.735V50ZM259.533 50.72C262.029 50.72 264.325 50.064 266.421 48.752C268.533 47.44 270.077 45.6 271.053 43.232L264.525 41.36C263.533 43.536 261.741 44.624 259.149 44.624C257.373 44.624 255.973 44.128 254.949 43.136C253.941 42.144 253.317 40.72 253.077 38.864H271.269C271.541 35.728 271.221 33 270.309 30.68C269.397 28.36 267.989 26.56 266.085 25.28C264.181 24 261.869 23.36 259.149 23.36C256.589 23.36 254.325 23.944 252.357 25.112C250.389 26.264 248.845 27.888 247.725 29.984C246.605 32.08 246.045 34.544 246.045 37.376C246.045 39.968 246.613 42.272 247.749 44.288C248.901 46.288 250.485 47.864 252.501 49.016C254.533 50.152 256.877 50.72 259.533 50.72ZM259.437 29.024C261.005 29.024 262.205 29.416 263.037 30.2C263.885 30.984 264.429 32.256 264.669 34.016H253.245C253.933 30.688 255.997 29.024 259.437 29.024ZM283.419 50.72C285.419 50.72 287.099 50.416 288.459 49.808C289.835 49.184 291.099 48.192 292.251 46.832V50H297.963V34.16C297.963 32.976 297.915 31.904 297.819 30.944C297.723 29.984 297.419 29.024 296.907 28.064C295.995 26.336 294.651 25.12 292.875 24.416C291.099 23.712 289.067 23.36 286.779 23.36C283.659 23.36 281.195 24.032 279.387 25.376C277.579 26.72 276.347 28.464 275.691 30.608L281.595 32.48C282.011 31.296 282.739 30.472 283.779 30.008C284.819 29.544 285.819 29.312 286.779 29.312C288.315 29.312 289.459 29.6 290.211 30.176C290.963 30.736 291.403 31.624 291.531 32.84C289.099 33.192 286.955 33.536 285.099 33.872C283.243 34.192 281.691 34.576 280.443 35.024C278.363 35.792 276.899 36.84 276.051 38.168C275.203 39.48 274.779 41.04 274.779 42.848C274.779 44.288 275.107 45.608 275.763 46.808C276.435 47.992 277.411 48.944 278.691 49.664C279.987 50.368 281.563 50.72 283.419 50.72ZM284.811 45.584C283.691 45.584 282.803 45.336 282.147 44.84C281.491 44.328 281.163 43.632 281.163 42.752C281.163 42.096 281.371 41.536 281.787 41.072C282.203 40.592 282.891 40.16 283.851 39.776C284.587 39.504 285.491 39.256 286.563 39.032C287.651 38.792 289.291 38.488 291.483 38.12C291.467 38.744 291.419 39.432 291.339 40.184C291.259 40.92 291.083 41.568 290.811 42.128C290.635 42.496 290.299 42.952 289.803 43.496C289.323 44.04 288.667 44.528 287.835 44.96C287.019 45.376 286.011 45.584 284.811 45.584ZM319.756 50V44.576C318.22 44.784 316.82 44.848 315.556 44.768C314.292 44.688 313.372 44.192 312.796 43.28C312.492 42.8 312.324 42.16 312.292 41.36C312.276 40.544 312.268 39.632 312.268 38.624V29.12H319.756V24.08H312.268V16.88H305.74V24.08H301.324V29.12H305.74V39.008C305.74 40.56 305.756 41.952 305.788 43.184C305.82 44.4 306.156 45.6 306.796 46.784C307.5 48.048 308.524 48.968 309.868 49.544C311.228 50.104 312.764 50.4 314.476 50.432C316.204 50.48 317.964 50.336 319.756 50ZM335.18 50.768C337.052 50.768 338.684 50.456 340.076 49.832C341.468 49.208 342.636 48.376 343.58 47.336V50H349.34V24.08H342.764V37.232C342.764 38.832 342.58 40.128 342.212 41.12C341.86 42.096 341.404 42.84 340.844 43.352C340.284 43.848 339.684 44.184 339.044 44.36C338.404 44.536 337.804 44.624 337.244 44.624C335.852 44.624 334.772 44.312 334.004 43.688C333.252 43.064 332.708 42.288 332.372 41.36C332.036 40.432 331.836 39.512 331.772 38.6C331.708 37.672 331.676 36.912 331.676 36.32V24.08H325.052V38.624C325.052 39.056 325.084 39.744 325.148 40.688C325.212 41.632 325.396 42.68 325.7 43.832C326.004 44.968 326.508 46.064 327.212 47.12C327.932 48.176 328.932 49.048 330.212 49.736C331.492 50.424 333.148 50.768 335.18 50.768ZM356.048 50H362.624V36.752C362.624 33.744 363.808 31.696 366.176 30.608C366.944 30.24 367.8 30.024 368.744 29.96C369.704 29.88 370.544 29.952 371.264 30.176V24.08C370.096 23.936 368.928 23.968 367.76 24.176C366.592 24.368 365.536 24.752 364.592 25.328C363.984 25.68 363.448 26.104 362.984 26.6C362.536 27.096 362.144 27.648 361.808 28.256V24.08H356.048V50ZM387.408 50.72C389.904 50.72 392.2 50.064 394.296 48.752C396.408 47.44 397.952 45.6 398.928 43.232L392.4 41.36C391.408 43.536 389.616 44.624 387.024 44.624C385.248 44.624 383.848 44.128 382.824 43.136C381.816 42.144 381.192 40.72 380.952 38.864H399.144C399.416 35.728 399.096 33 398.184 30.68C397.272 28.36 395.864 26.56 393.96 25.28C392.056 24 389.744 23.36 387.024 23.36C384.464 23.36 382.2 23.944 380.232 25.112C378.264 26.264 376.72 27.888 375.6 29.984C374.48 32.08 373.92 34.544 373.92 37.376C373.92 39.968 374.488 42.272 375.624 44.288C376.776 46.288 378.36 47.864 380.376 49.016C382.408 50.152 384.752 50.72 387.408 50.72ZM387.312 29.024C388.88 29.024 390.08 29.416 390.912 30.2C391.76 30.984 392.304 32.256 392.544 34.016H381.12C381.808 30.688 383.872 29.024 387.312 29.024ZM414.691 50.72C418.083 50.72 420.739 49.96 422.659 48.44C424.579 46.92 425.539 44.832 425.539 42.176C425.539 40.16 424.915 38.568 423.667 37.4C422.435 36.232 420.339 35.264 417.379 34.496C415.363 33.984 413.859 33.568 412.867 33.248C411.891 32.928 411.243 32.616 410.923 32.312C410.619 32.008 410.467 31.632 410.467 31.184C410.467 30.432 410.827 29.856 411.547 29.456C412.283 29.056 413.251 28.896 414.451 28.976C416.995 29.168 418.387 30.256 418.627 32.24L425.299 31.04C424.963 28.688 423.811 26.824 421.843 25.448C419.875 24.056 417.363 23.36 414.307 23.36C411.171 23.36 408.667 24.096 406.795 25.568C404.923 27.04 403.987 29.024 403.987 31.52C403.987 33.504 404.635 35.072 405.931 36.224C407.227 37.36 409.459 38.336 412.627 39.152C414.499 39.648 415.875 40.048 416.755 40.352C417.651 40.656 418.227 40.968 418.483 41.288C418.739 41.592 418.867 42 418.867 42.512C418.867 43.328 418.547 43.968 417.907 44.432C417.267 44.88 416.355 45.104 415.171 45.104C413.731 45.104 412.539 44.76 411.595 44.072C410.667 43.384 410.067 42.432 409.795 41.216L403.123 42.224C403.555 44.928 404.771 47.024 406.771 48.512C408.787 49.984 411.427 50.72 414.691 50.72Z" fill="#18191F"/>
<path d="M13.9293 95H21.4083V93.731H15.2523V82.04H13.9293V95ZM27.0016 95.27C27.9616 95.27 28.7836 95.054 29.4676 94.622C30.1576 94.19 30.6856 93.59 31.0516 92.822C31.4236 92.048 31.6096 91.151 31.6096 90.131C31.6096 89.129 31.4266 88.244 31.0606 87.476C30.7006 86.702 30.1756 86.099 29.4856 85.667C28.8016 85.229 27.9736 85.01 27.0016 85.01C26.0536 85.01 25.2346 85.226 24.5446 85.658C23.8606 86.084 23.3326 86.681 22.9606 87.449C22.5886 88.217 22.4026 89.111 22.4026 90.131C22.4026 91.133 22.5826 92.021 22.9426 92.795C23.3086 93.569 23.8336 94.175 24.5176 94.613C25.2076 95.051 26.0356 95.27 27.0016 95.27ZM27.0016 94.001C25.9516 94.001 25.1566 93.65 24.6166 92.948C24.0766 92.24 23.8066 91.301 23.8066 90.131C23.8066 88.997 24.0676 88.073 24.5896 87.359C25.1116 86.639 25.9156 86.279 27.0016 86.279C28.0756 86.279 28.8766 86.63 29.4046 87.332C29.9386 88.028 30.2056 88.961 30.2056 90.131C30.2056 91.277 29.9416 92.21 29.4136 92.93C28.8856 93.644 28.0816 94.001 27.0016 94.001ZM33.595 95H34.918V90.149C34.918 89.567 34.984 88.988 35.116 88.412C35.254 87.83 35.566 87.347 36.052 86.963C36.406 86.675 36.79 86.51 37.204 86.468C37.624 86.42 38.014 86.438 38.374 86.522V85.28C37.948 85.172 37.465 85.169 36.925 85.271C36.385 85.367 35.923 85.583 35.539 85.919C35.251 86.135 34.999 86.435 34.783 86.819V85.28H33.595V95ZM44.0185 95.27C44.9605 95.27 45.8035 95.039 46.5475 94.577C47.2975 94.115 47.8645 93.458 48.2485 92.606L47.0155 92.129C46.3975 93.377 45.3805 94.001 43.9645 94.001C42.9925 94.001 42.2305 93.698 41.6785 93.092C41.1325 92.486 40.8325 91.625 40.7785 90.509H48.4375C48.4855 88.793 48.1105 87.449 47.3125 86.477C46.5205 85.499 45.4045 85.01 43.9645 85.01C43.0285 85.01 42.2155 85.22 41.5255 85.64C40.8415 86.06 40.3105 86.657 39.9325 87.431C39.5545 88.205 39.3655 89.123 39.3655 90.185C39.3655 91.211 39.5545 92.105 39.9325 92.867C40.3165 93.629 40.8565 94.22 41.5525 94.64C42.2545 95.06 43.0765 95.27 44.0185 95.27ZM44.0005 86.225C45.8305 86.225 46.8475 87.284 47.0515 89.402H40.8055C40.9075 88.376 41.2315 87.59 41.7775 87.044C42.3235 86.498 43.0645 86.225 44.0005 86.225ZM50.1621 95H51.4941V88.727C51.4941 87.965 51.7011 87.356 52.1151 86.9C52.5291 86.438 53.0721 86.207 53.7441 86.207C54.4161 86.207 54.9561 86.432 55.3641 86.882C55.7781 87.326 55.9851 87.935 55.9851 88.709L55.9761 95H57.2811L57.2901 88.727C57.2901 88.121 57.4011 87.635 57.6231 87.269C57.8511 86.897 58.1391 86.627 58.4871 86.459C58.8351 86.291 59.1921 86.207 59.5581 86.207C60.2001 86.207 60.7281 86.423 61.1421 86.855C61.5621 87.281 61.7721 87.869 61.7721 88.619L61.7631 95H63.0861L63.0951 88.367C63.0951 87.341 62.8011 86.528 62.2131 85.928C61.6311 85.322 60.8481 85.019 59.8641 85.019C59.2161 85.019 58.6341 85.166 58.1181 85.46C57.6021 85.748 57.2031 86.147 56.9211 86.657C56.6571 86.123 56.2761 85.718 55.7781 85.442C55.2861 85.16 54.7221 85.019 54.0861 85.019C53.5101 85.019 52.9851 85.136 52.5111 85.37C52.0371 85.598 51.6501 85.91 51.3501 86.306V85.28H50.1621V95ZM69.2125 83.435H70.5355V81.95H69.2125V83.435ZM69.2125 95H70.5355V85.28H69.2125V95ZM73.2246 99.32H74.5566V93.839C74.9046 94.283 75.3336 94.634 75.8436 94.892C76.3536 95.144 76.9386 95.27 77.5986 95.27C78.5106 95.27 79.2876 95.045 79.9296 94.595C80.5716 94.139 81.0606 93.524 81.3966 92.75C81.7386 91.976 81.9096 91.103 81.9096 90.131C81.9096 89.165 81.7386 88.295 81.3966 87.521C81.0606 86.747 80.5746 86.135 79.9386 85.685C79.3026 85.235 78.5406 85.01 77.6526 85.01C76.9326 85.01 76.2996 85.154 75.7536 85.442C75.2136 85.724 74.7666 86.117 74.4126 86.621V85.28H73.2246V99.32ZM77.4636 94.037C76.7736 94.037 76.2036 93.869 75.7536 93.533C75.3036 93.191 74.9676 92.726 74.7456 92.138C74.5236 91.55 74.4126 90.881 74.4126 90.131C74.4126 88.985 74.6616 88.052 75.1596 87.332C75.6636 86.606 76.4226 86.243 77.4366 86.243C78.1326 86.243 78.7056 86.414 79.1556 86.756C79.6116 87.098 79.9506 87.563 80.1726 88.151C80.3946 88.739 80.5056 89.399 80.5056 90.131C80.5056 90.869 80.3916 91.532 80.1636 92.12C79.9416 92.708 79.6056 93.176 79.1556 93.524C78.7056 93.866 78.1416 94.037 77.4636 94.037ZM87.4251 95.261C88.6191 95.261 89.5551 95 90.2331 94.478C90.9171 93.95 91.2591 93.227 91.2591 92.309C91.2591 91.805 91.1511 91.382 90.9351 91.04C90.7251 90.698 90.3621 90.401 89.8461 90.149C89.3361 89.897 88.6341 89.657 87.7401 89.429C86.9781 89.237 86.3901 89.06 85.9761 88.898C85.5681 88.736 85.2861 88.565 85.1301 88.385C84.9741 88.199 84.8961 87.977 84.8961 87.719C84.8961 87.257 85.1121 86.888 85.5441 86.612C85.9761 86.336 86.5371 86.204 87.2271 86.216C87.9591 86.228 88.5621 86.402 89.0361 86.738C89.5101 87.068 89.7951 87.518 89.8911 88.088L91.2411 87.845C91.1751 87.281 90.9651 86.786 90.6111 86.36C90.2571 85.934 89.7891 85.604 89.2071 85.37C88.6311 85.13 87.9771 85.01 87.2451 85.01C86.5131 85.01 85.8681 85.127 85.3101 85.361C84.7581 85.589 84.3261 85.913 84.0141 86.333C83.7081 86.747 83.5551 87.23 83.5551 87.782C83.5551 88.232 83.6571 88.616 83.8611 88.934C84.0711 89.246 84.4281 89.525 84.9321 89.771C85.4361 90.011 86.1261 90.251 87.0021 90.491C87.8241 90.713 88.4391 90.905 88.8471 91.067C89.2611 91.229 89.5371 91.406 89.6751 91.598C89.8131 91.784 89.8821 92.027 89.8821 92.327C89.8821 92.855 89.6691 93.275 89.2431 93.587C88.8171 93.899 88.2351 94.055 87.4971 94.055C86.7411 94.055 86.1051 93.893 85.5891 93.569C85.0731 93.239 84.7461 92.798 84.6081 92.246L83.2581 92.471C83.4261 93.347 83.8761 94.031 84.6081 94.523C85.3461 95.015 86.2851 95.261 87.4251 95.261ZM96.9721 95.243C97.6681 95.243 98.2951 95.111 98.8531 94.847C99.4171 94.577 99.8791 94.178 100.239 93.65V95H101.427V85.28H100.104V90.464C100.104 91.562 99.8581 92.423 99.3661 93.047C98.8741 93.671 98.1601 93.983 97.2241 93.983C96.5461 93.983 96.0001 93.821 95.5861 93.497C95.1721 93.167 94.8721 92.72 94.6861 92.156C94.5001 91.592 94.4071 90.953 94.4071 90.239V85.28H93.0751V90.626C93.0751 91.172 93.1411 91.718 93.2731 92.264C93.4111 92.81 93.6301 93.308 93.9301 93.758C94.2301 94.208 94.6291 94.568 95.1271 94.838C95.6311 95.108 96.2461 95.243 96.9721 95.243ZM103.934 95H105.266V88.727C105.266 87.965 105.473 87.356 105.887 86.9C106.301 86.438 106.844 86.207 107.516 86.207C108.188 86.207 108.728 86.432 109.136 86.882C109.55 87.326 109.757 87.935 109.757 88.709L109.748 95H111.053L111.062 88.727C111.062 88.121 111.173 87.635 111.395 87.269C111.623 86.897 111.911 86.627 112.259 86.459C112.607 86.291 112.964 86.207 113.33 86.207C113.972 86.207 114.5 86.423 114.914 86.855C115.334 87.281 115.544 87.869 115.544 88.619L115.535 95H116.858L116.867 88.367C116.867 87.341 116.573 86.528 115.985 85.928C115.403 85.322 114.62 85.019 113.636 85.019C112.988 85.019 112.406 85.166 111.89 85.46C111.374 85.748 110.975 86.147 110.693 86.657C110.429 86.123 110.048 85.718 109.55 85.442C109.058 85.16 108.494 85.019 107.858 85.019C107.282 85.019 106.757 85.136 106.283 85.37C105.809 85.598 105.422 85.91 105.122 86.306V85.28H103.934V95ZM122.984 83.435H124.307V81.95H122.984V83.435ZM122.984 95H124.307V85.28H122.984V95ZM130.632 95.261C131.826 95.261 132.762 95 133.44 94.478C134.124 93.95 134.466 93.227 134.466 92.309C134.466 91.805 134.358 91.382 134.142 91.04C133.932 90.698 133.569 90.401 133.053 90.149C132.543 89.897 131.841 89.657 130.947 89.429C130.185 89.237 129.597 89.06 129.183 88.898C128.775 88.736 128.493 88.565 128.337 88.385C128.181 88.199 128.103 87.977 128.103 87.719C128.103 87.257 128.319 86.888 128.751 86.612C129.183 86.336 129.744 86.204 130.434 86.216C131.166 86.228 131.769 86.402 132.243 86.738C132.717 87.068 133.002 87.518 133.098 88.088L134.448 87.845C134.382 87.281 134.172 86.786 133.818 86.36C133.464 85.934 132.996 85.604 132.414 85.37C131.838 85.13 131.184 85.01 130.452 85.01C129.72 85.01 129.075 85.127 128.517 85.361C127.965 85.589 127.533 85.913 127.221 86.333C126.915 86.747 126.762 87.23 126.762 87.782C126.762 88.232 126.864 88.616 127.068 88.934C127.278 89.246 127.635 89.525 128.139 89.771C128.643 90.011 129.333 90.251 130.209 90.491C131.031 90.713 131.646 90.905 132.054 91.067C132.468 91.229 132.744 91.406 132.882 91.598C133.02 91.784 133.089 92.027 133.089 92.327C133.089 92.855 132.876 93.275 132.45 93.587C132.024 93.899 131.442 94.055 130.704 94.055C129.948 94.055 129.312 93.893 128.796 93.569C128.28 93.239 127.953 92.798 127.815 92.246L126.465 92.471C126.633 93.347 127.083 94.031 127.815 94.523C128.553 95.015 129.492 95.261 130.632 95.261ZM144.098 95.27C145.064 95.27 145.892 95.045 146.582 94.595C147.278 94.139 147.809 93.479 148.175 92.615L146.843 92.219C146.351 93.407 145.436 94.001 144.098 94.001C143.054 94.001 142.268 93.65 141.74 92.948C141.212 92.24 140.942 91.304 140.93 90.14C140.942 89.006 141.203 88.079 141.713 87.359C142.229 86.639 143.024 86.279 144.098 86.279C144.734 86.279 145.298 86.441 145.79 86.765C146.288 87.083 146.651 87.533 146.879 88.115L148.175 87.701C147.905 86.867 147.404 86.21 146.672 85.73C145.946 85.25 145.091 85.01 144.107 85.01C143.141 85.01 142.319 85.226 141.641 85.658C140.963 86.084 140.444 86.684 140.084 87.458C139.724 88.226 139.538 89.12 139.526 90.14C139.538 91.136 139.718 92.021 140.066 92.795C140.42 93.569 140.936 94.175 141.614 94.613C142.292 95.051 143.12 95.27 144.098 95.27ZM153.828 95.27C154.788 95.27 155.61 95.054 156.294 94.622C156.984 94.19 157.512 93.59 157.878 92.822C158.25 92.048 158.436 91.151 158.436 90.131C158.436 89.129 158.253 88.244 157.887 87.476C157.527 86.702 157.002 86.099 156.312 85.667C155.628 85.229 154.8 85.01 153.828 85.01C152.88 85.01 152.061 85.226 151.371 85.658C150.687 86.084 150.159 86.681 149.787 87.449C149.415 88.217 149.229 89.111 149.229 90.131C149.229 91.133 149.409 92.021 149.769 92.795C150.135 93.569 150.66 94.175 151.344 94.613C152.034 95.051 152.862 95.27 153.828 95.27ZM153.828 94.001C152.778 94.001 151.983 93.65 151.443 92.948C150.903 92.24 150.633 91.301 150.633 90.131C150.633 88.997 150.894 88.073 151.416 87.359C151.938 86.639 152.742 86.279 153.828 86.279C154.902 86.279 155.703 86.63 156.231 87.332C156.765 88.028 157.032 88.961 157.032 90.131C157.032 91.277 156.768 92.21 156.24 92.93C155.712 93.644 154.908 94.001 153.828 94.001ZM160.412 95H161.744V88.727C161.744 87.965 161.951 87.356 162.365 86.9C162.779 86.438 163.322 86.207 163.994 86.207C164.666 86.207 165.206 86.432 165.614 86.882C166.028 87.326 166.235 87.935 166.235 88.709L166.226 95H167.531L167.54 88.727C167.54 88.121 167.651 87.635 167.873 87.269C168.101 86.897 168.389 86.627 168.737 86.459C169.085 86.291 169.442 86.207 169.808 86.207C170.45 86.207 170.978 86.423 171.392 86.855C171.812 87.281 172.022 87.869 172.022 88.619L172.013 95H173.336L173.345 88.367C173.345 87.341 173.051 86.528 172.463 85.928C171.881 85.322 171.098 85.019 170.114 85.019C169.466 85.019 168.884 85.166 168.368 85.46C167.852 85.748 167.453 86.147 167.171 86.657C166.907 86.123 166.526 85.718 166.028 85.442C165.536 85.16 164.972 85.019 164.336 85.019C163.76 85.019 163.235 85.136 162.761 85.37C162.287 85.598 161.9 85.91 161.6 86.306V85.28H160.412V95ZM175.67 95H177.002V88.727C177.002 87.965 177.209 87.356 177.623 86.9C178.037 86.438 178.58 86.207 179.252 86.207C179.924 86.207 180.464 86.432 180.872 86.882C181.286 87.326 181.493 87.935 181.493 88.709L181.484 95H182.789L182.798 88.727C182.798 88.121 182.909 87.635 183.131 87.269C183.359 86.897 183.647 86.627 183.995 86.459C184.343 86.291 184.7 86.207 185.066 86.207C185.708 86.207 186.236 86.423 186.65 86.855C187.07 87.281 187.28 87.869 187.28 88.619L187.271 95H188.594L188.603 88.367C188.603 87.341 188.309 86.528 187.721 85.928C187.139 85.322 186.356 85.019 185.372 85.019C184.724 85.019 184.142 85.166 183.626 85.46C183.11 85.748 182.711 86.147 182.429 86.657C182.165 86.123 181.784 85.718 181.286 85.442C180.794 85.16 180.23 85.019 179.594 85.019C179.018 85.019 178.493 85.136 178.019 85.37C177.545 85.598 177.158 85.91 176.858 86.306V85.28H175.67V95ZM194.925 95.27C195.885 95.27 196.707 95.054 197.391 94.622C198.081 94.19 198.609 93.59 198.975 92.822C199.347 92.048 199.533 91.151 199.533 90.131C199.533 89.129 199.35 88.244 198.984 87.476C198.624 86.702 198.099 86.099 197.409 85.667C196.725 85.229 195.897 85.01 194.925 85.01C193.977 85.01 193.158 85.226 192.468 85.658C191.784 86.084 191.256 86.681 190.884 87.449C190.512 88.217 190.326 89.111 190.326 90.131C190.326 91.133 190.506 92.021 190.866 92.795C191.232 93.569 191.757 94.175 192.441 94.613C193.131 95.051 193.959 95.27 194.925 95.27ZM194.925 94.001C193.875 94.001 193.08 93.65 192.54 92.948C192 92.24 191.73 91.301 191.73 90.131C191.73 88.997 191.991 88.073 192.513 87.359C193.035 86.639 193.839 86.279 194.925 86.279C195.999 86.279 196.8 86.63 197.328 87.332C197.862 88.028 198.129 88.961 198.129 90.131C198.129 91.277 197.865 92.21 197.337 92.93C196.809 93.644 196.005 94.001 194.925 94.001ZM201.51 95H202.842V89.816C202.842 88.718 203.088 87.857 203.58 87.233C204.072 86.609 204.786 86.297 205.722 86.297C206.4 86.297 206.946 86.462 207.36 86.792C207.774 87.116 208.074 87.56 208.26 88.124C208.446 88.688 208.539 89.327 208.539 90.041V95H209.871V89.654C209.871 89.108 209.802 88.562 209.664 88.016C209.532 87.47 209.316 86.972 209.016 86.522C208.716 86.072 208.317 85.712 207.819 85.442C207.321 85.172 206.706 85.037 205.974 85.037C205.278 85.037 204.648 85.172 204.084 85.442C203.526 85.706 203.067 86.102 202.707 86.63V85.28H201.51V95ZM215.801 99.32H217.133V93.839C217.481 94.283 217.91 94.634 218.42 94.892C218.93 95.144 219.515 95.27 220.175 95.27C221.087 95.27 221.864 95.045 222.506 94.595C223.148 94.139 223.637 93.524 223.973 92.75C224.315 91.976 224.486 91.103 224.486 90.131C224.486 89.165 224.315 88.295 223.973 87.521C223.637 86.747 223.151 86.135 222.515 85.685C221.879 85.235 221.117 85.01 220.229 85.01C219.509 85.01 218.876 85.154 218.33 85.442C217.79 85.724 217.343 86.117 216.989 86.621V85.28H215.801V99.32ZM220.04 94.037C219.35 94.037 218.78 93.869 218.33 93.533C217.88 93.191 217.544 92.726 217.322 92.138C217.1 91.55 216.989 90.881 216.989 90.131C216.989 88.985 217.238 88.052 217.736 87.332C218.24 86.606 218.999 86.243 220.013 86.243C220.709 86.243 221.282 86.414 221.732 86.756C222.188 87.098 222.527 87.563 222.749 88.151C222.971 88.739 223.082 89.399 223.082 90.131C223.082 90.869 222.968 91.532 222.74 92.12C222.518 92.708 222.182 93.176 221.732 93.524C221.282 93.866 220.718 94.037 220.04 94.037ZM226.642 95H227.965V81.77H226.642V95ZM233.444 95.27C235.142 95.27 236.375 94.643 237.143 93.389V95H238.322V88.961C238.322 88.601 238.304 88.247 238.268 87.899C238.232 87.551 238.154 87.236 238.034 86.954C237.776 86.324 237.335 85.844 236.711 85.514C236.093 85.178 235.34 85.01 234.452 85.01C233.384 85.01 232.514 85.25 231.842 85.73C231.17 86.21 230.72 86.885 230.492 87.755L231.779 88.133C231.965 87.485 232.286 87.011 232.742 86.711C233.204 86.411 233.768 86.261 234.434 86.261C235.358 86.261 236.018 86.477 236.414 86.909C236.81 87.335 237.014 87.986 237.026 88.862C236.594 88.922 236.117 88.985 235.595 89.051C235.079 89.117 234.56 89.192 234.038 89.276C233.516 89.36 233.036 89.456 232.598 89.564C231.872 89.756 231.278 90.077 230.816 90.527C230.354 90.971 230.123 91.592 230.123 92.39C230.123 92.906 230.246 93.383 230.492 93.821C230.738 94.259 231.107 94.61 231.599 94.874C232.097 95.138 232.712 95.27 233.444 95.27ZM233.597 94.127C233.075 94.127 232.655 94.043 232.337 93.875C232.025 93.701 231.797 93.482 231.653 93.218C231.515 92.948 231.446 92.672 231.446 92.39C231.446 91.862 231.623 91.466 231.977 91.202C232.331 90.938 232.715 90.746 233.129 90.626C233.663 90.482 234.284 90.365 234.992 90.275C235.7 90.185 236.372 90.101 237.008 90.023C237.008 90.245 236.999 90.5 236.981 90.788C236.969 91.07 236.936 91.331 236.882 91.571C236.756 92.303 236.408 92.912 235.838 93.398C235.274 93.884 234.527 94.127 233.597 94.127ZM244.697 95.27C245.663 95.27 246.491 95.045 247.181 94.595C247.877 94.139 248.408 93.479 248.774 92.615L247.442 92.219C246.95 93.407 246.035 94.001 244.697 94.001C243.653 94.001 242.867 93.65 242.339 92.948C241.811 92.24 241.541 91.304 241.529 90.14C241.541 89.006 241.802 88.079 242.312 87.359C242.828 86.639 243.623 86.279 244.697 86.279C245.333 86.279 245.897 86.441 246.389 86.765C246.887 87.083 247.25 87.533 247.478 88.115L248.774 87.701C248.504 86.867 248.003 86.21 247.271 85.73C246.545 85.25 245.69 85.01 244.706 85.01C243.74 85.01 242.918 85.226 242.24 85.658C241.562 86.084 241.043 86.684 240.683 87.458C240.323 88.226 240.137 89.12 240.125 90.14C240.137 91.136 240.317 92.021 240.665 92.795C241.019 93.569 241.535 94.175 242.213 94.613C242.891 95.051 243.719 95.27 244.697 95.27ZM254.481 95.27C255.423 95.27 256.266 95.039 257.01 94.577C257.76 94.115 258.327 93.458 258.711 92.606L257.478 92.129C256.86 93.377 255.843 94.001 254.427 94.001C253.455 94.001 252.693 93.698 252.141 93.092C251.595 92.486 251.295 91.625 251.241 90.509H258.9C258.948 88.793 258.573 87.449 257.775 86.477C256.983 85.499 255.867 85.01 254.427 85.01C253.491 85.01 252.678 85.22 251.988 85.64C251.304 86.06 250.773 86.657 250.395 87.431C250.017 88.205 249.828 89.123 249.828 90.185C249.828 91.211 250.017 92.105 250.395 92.867C250.779 93.629 251.319 94.22 252.015 94.64C252.717 95.06 253.539 95.27 254.481 95.27ZM254.463 86.225C256.293 86.225 257.31 87.284 257.514 89.402H251.268C251.37 88.376 251.694 87.59 252.24 87.044C252.786 86.498 253.527 86.225 254.463 86.225ZM260.889 95H262.221V89.816C262.221 88.718 262.467 87.857 262.959 87.233C263.451 86.609 264.165 86.297 265.101 86.297C265.779 86.297 266.325 86.462 266.739 86.792C267.153 87.116 267.453 87.56 267.639 88.124C267.825 88.688 267.918 89.327 267.918 90.041V95H269.25V89.654C269.25 89.108 269.181 88.562 269.043 88.016C268.911 87.47 268.695 86.972 268.395 86.522C268.095 86.072 267.696 85.712 267.198 85.442C266.7 85.172 266.085 85.037 265.353 85.037C264.657 85.037 264.027 85.172 263.463 85.442C262.905 85.706 262.446 86.102 262.086 86.63V82.04H260.889V95ZM275.644 95.27C276.604 95.27 277.426 95.054 278.11 94.622C278.8 94.19 279.328 93.59 279.694 92.822C280.066 92.048 280.252 91.151 280.252 90.131C280.252 89.129 280.069 88.244 279.703 87.476C279.343 86.702 278.818 86.099 278.128 85.667C277.444 85.229 276.616 85.01 275.644 85.01C274.696 85.01 273.877 85.226 273.187 85.658C272.503 86.084 271.975 86.681 271.603 87.449C271.231 88.217 271.045 89.111 271.045 90.131C271.045 91.133 271.225 92.021 271.585 92.795C271.951 93.569 272.476 94.175 273.16 94.613C273.85 95.051 274.678 95.27 275.644 95.27ZM275.644 94.001C274.594 94.001 273.799 93.65 273.259 92.948C272.719 92.24 272.449 91.301 272.449 90.131C272.449 88.997 272.71 88.073 273.232 87.359C273.754 86.639 274.558 86.279 275.644 86.279C276.718 86.279 277.519 86.63 278.047 87.332C278.581 88.028 278.848 88.961 278.848 90.131C278.848 91.277 278.584 92.21 278.056 92.93C277.528 93.644 276.724 94.001 275.644 94.001ZM282.418 95H283.741V81.77H282.418V95ZM290.21 95.27C290.918 95.27 291.539 95.126 292.073 94.838C292.607 94.544 293.048 94.145 293.396 93.641V95H294.584V82.04H293.252V86.423C292.898 85.979 292.46 85.634 291.938 85.388C291.422 85.136 290.828 85.01 290.156 85.01C289.268 85.01 288.506 85.235 287.87 85.685C287.234 86.135 286.745 86.747 286.403 87.521C286.067 88.295 285.899 89.165 285.899 90.131C285.899 91.103 286.067 91.976 286.403 92.75C286.745 93.524 287.237 94.139 287.879 94.595C288.527 95.045 289.304 95.27 290.21 95.27ZM290.345 94.037C289.673 94.037 289.109 93.866 288.653 93.524C288.203 93.176 287.864 92.708 287.636 92.12C287.414 91.532 287.303 90.869 287.303 90.131C287.303 89.399 287.414 88.739 287.636 88.151C287.858 87.563 288.194 87.098 288.644 86.756C289.1 86.414 289.676 86.243 290.372 86.243C291.386 86.243 292.142 86.606 292.64 87.332C293.144 88.052 293.396 88.985 293.396 90.131C293.396 90.881 293.285 91.55 293.063 92.138C292.841 92.726 292.505 93.191 292.055 93.533C291.605 93.869 291.035 94.037 290.345 94.037ZM301.222 95.27C302.164 95.27 303.007 95.039 303.751 94.577C304.501 94.115 305.068 93.458 305.452 92.606L304.219 92.129C303.601 93.377 302.584 94.001 301.168 94.001C300.196 94.001 299.434 93.698 298.882 93.092C298.336 92.486 298.036 91.625 297.982 90.509H305.641C305.689 88.793 305.314 87.449 304.516 86.477C303.724 85.499 302.608 85.01 301.168 85.01C300.232 85.01 299.419 85.22 298.729 85.64C298.045 86.06 297.514 86.657 297.136 87.431C296.758 88.205 296.569 89.123 296.569 90.185C296.569 91.211 296.758 92.105 297.136 92.867C297.52 93.629 298.06 94.22 298.756 94.64C299.458 95.06 300.28 95.27 301.222 95.27ZM301.204 86.225C303.034 86.225 304.051 87.284 304.255 89.402H298.009C298.111 88.376 298.435 87.59 298.981 87.044C299.527 86.498 300.268 86.225 301.204 86.225ZM307.638 95H308.961V90.149C308.961 89.567 309.027 88.988 309.159 88.412C309.297 87.83 309.609 87.347 310.095 86.963C310.449 86.675 310.833 86.51 311.247 86.468C311.667 86.42 312.057 86.438 312.417 86.522V85.28C311.991 85.172 311.508 85.169 310.968 85.271C310.428 85.367 309.966 85.583 309.582 85.919C309.294 86.135 309.042 86.435 308.826 86.819V85.28H307.638V95ZM323.02 95V93.839C322.324 93.953 321.739 93.971 321.265 93.893C320.797 93.815 320.455 93.575 320.239 93.173C320.125 92.963 320.062 92.723 320.05 92.453C320.044 92.177 320.041 91.835 320.041 91.427V86.414H323.02V85.28H320.041V82.58H318.727V85.28H316.648V86.414H318.727V91.481C318.727 91.955 318.733 92.378 318.745 92.75C318.763 93.122 318.859 93.485 319.033 93.839C319.249 94.271 319.564 94.589 319.978 94.793C320.398 94.997 320.872 95.111 321.4 95.135C321.934 95.159 322.474 95.114 323.02 95ZM328.696 95.27C329.638 95.27 330.481 95.039 331.225 94.577C331.975 94.115 332.542 93.458 332.926 92.606L331.693 92.129C331.075 93.377 330.058 94.001 328.642 94.001C327.67 94.001 326.908 93.698 326.356 93.092C325.81 92.486 325.51 91.625 325.456 90.509H333.115C333.163 88.793 332.788 87.449 331.99 86.477C331.198 85.499 330.082 85.01 328.642 85.01C327.706 85.01 326.893 85.22 326.203 85.64C325.519 86.06 324.988 86.657 324.61 87.431C324.232 88.205 324.043 89.123 324.043 90.185C324.043 91.211 324.232 92.105 324.61 92.867C324.994 93.629 325.534 94.22 326.23 94.64C326.932 95.06 327.754 95.27 328.696 95.27ZM328.678 86.225C330.508 86.225 331.525 87.284 331.729 89.402H325.483C325.585 88.376 325.909 87.59 326.455 87.044C327.001 86.498 327.742 86.225 328.678 86.225ZM333.681 95H335.274L338.253 91.103L341.214 95H342.807L339 90.086L342.717 85.28H341.133L338.253 89.069L335.346 85.28H333.762L337.479 90.086L333.681 95ZM349.545 95V93.839C348.849 93.953 348.264 93.971 347.79 93.893C347.322 93.815 346.98 93.575 346.764 93.173C346.65 92.963 346.587 92.723 346.575 92.453C346.569 92.177 346.566 91.835 346.566 91.427V86.414H349.545V85.28H346.566V82.58H345.252V85.28H343.173V86.414H345.252V91.481C345.252 91.955 345.258 92.378 345.27 92.75C345.288 93.122 345.384 93.485 345.558 93.839C345.774 94.271 346.089 94.589 346.503 94.793C346.923 94.997 347.397 95.111 347.925 95.135C348.459 95.159 348.999 95.114 349.545 95ZM358.781 95.243C359.477 95.243 360.104 95.111 360.662 94.847C361.226 94.577 361.688 94.178 362.048 93.65V95H363.236V85.28H361.913V90.464C361.913 91.562 361.667 92.423 361.175 93.047C360.683 93.671 359.969 93.983 359.033 93.983C358.355 93.983 357.809 93.821 357.395 93.497C356.981 93.167 356.681 92.72 356.495 92.156C356.309 91.592 356.216 90.953 356.216 90.239V85.28H354.884V90.626C354.884 91.172 354.95 91.718 355.082 92.264C355.22 92.81 355.439 93.308 355.739 93.758C356.039 94.208 356.438 94.568 356.936 94.838C357.44 95.108 358.055 95.243 358.781 95.243ZM369.378 95.261C370.572 95.261 371.508 95 372.186 94.478C372.87 93.95 373.212 93.227 373.212 92.309C373.212 91.805 373.104 91.382 372.888 91.04C372.678 90.698 372.315 90.401 371.799 90.149C371.289 89.897 370.587 89.657 369.693 89.429C368.931 89.237 368.343 89.06 367.929 88.898C367.521 88.736 367.239 88.565 367.083 88.385C366.927 88.199 366.849 87.977 366.849 87.719C366.849 87.257 367.065 86.888 367.497 86.612C367.929 86.336 368.49 86.204 369.18 86.216C369.912 86.228 370.515 86.402 370.989 86.738C371.463 87.068 371.748 87.518 371.844 88.088L373.194 87.845C373.128 87.281 372.918 86.786 372.564 86.36C372.21 85.934 371.742 85.604 371.16 85.37C370.584 85.13 369.93 85.01 369.198 85.01C368.466 85.01 367.821 85.127 367.263 85.361C366.711 85.589 366.279 85.913 365.967 86.333C365.661 86.747 365.508 87.23 365.508 87.782C365.508 88.232 365.61 88.616 365.814 88.934C366.024 89.246 366.381 89.525 366.885 89.771C367.389 90.011 368.079 90.251 368.955 90.491C369.777 90.713 370.392 90.905 370.8 91.067C371.214 91.229 371.49 91.406 371.628 91.598C371.766 91.784 371.835 92.027 371.835 92.327C371.835 92.855 371.622 93.275 371.196 93.587C370.77 93.899 370.188 94.055 369.45 94.055C368.694 94.055 368.058 93.893 367.542 93.569C367.026 93.239 366.699 92.798 366.561 92.246L365.211 92.471C365.379 93.347 365.829 94.031 366.561 94.523C367.299 95.015 368.238 95.261 369.378 95.261ZM379.321 95.27C380.263 95.27 381.106 95.039 381.85 94.577C382.6 94.115 383.167 93.458 383.551 92.606L382.318 92.129C381.7 93.377 380.683 94.001 379.267 94.001C378.295 94.001 377.533 93.698 376.981 93.092C376.435 92.486 376.135 91.625 376.081 90.509H383.74C383.788 88.793 383.413 87.449 382.615 86.477C381.823 85.499 380.707 85.01 379.267 85.01C378.331 85.01 377.518 85.22 376.828 85.64C376.144 86.06 375.613 86.657 375.235 87.431C374.857 88.205 374.668 89.123 374.668 90.185C374.668 91.211 374.857 92.105 375.235 92.867C375.619 93.629 376.159 94.22 376.855 94.64C377.557 95.06 378.379 95.27 379.321 95.27ZM379.303 86.225C381.133 86.225 382.15 87.284 382.354 89.402H376.108C376.21 88.376 376.534 87.59 377.08 87.044C377.626 86.498 378.367 86.225 379.303 86.225ZM389.509 95.27C390.217 95.27 390.838 95.126 391.372 94.838C391.906 94.544 392.347 94.145 392.695 93.641V95H393.883V82.04H392.551V86.423C392.197 85.979 391.759 85.634 391.237 85.388C390.721 85.136 390.127 85.01 389.455 85.01C388.567 85.01 387.805 85.235 387.169 85.685C386.533 86.135 386.044 86.747 385.702 87.521C385.366 88.295 385.198 89.165 385.198 90.131C385.198 91.103 385.366 91.976 385.702 92.75C386.044 93.524 386.536 94.139 387.178 94.595C387.826 95.045 388.603 95.27 389.509 95.27ZM389.644 94.037C388.972 94.037 388.408 93.866 387.952 93.524C387.502 93.176 387.163 92.708 386.935 92.12C386.713 91.532 386.602 90.869 386.602 90.131C386.602 89.399 386.713 88.739 386.935 88.151C387.157 87.563 387.493 87.098 387.943 86.756C388.399 86.414 388.975 86.243 389.671 86.243C390.685 86.243 391.441 86.606 391.939 87.332C392.443 88.052 392.695 88.985 392.695 90.131C392.695 90.881 392.584 91.55 392.362 92.138C392.14 92.726 391.804 93.191 391.354 93.533C390.904 93.869 390.334 94.037 389.644 94.037ZM405.303 95V93.839C404.607 93.953 404.022 93.971 403.548 93.893C403.08 93.815 402.738 93.575 402.522 93.173C402.408 92.963 402.345 92.723 402.333 92.453C402.327 92.177 402.324 91.835 402.324 91.427V86.414H405.303V85.28H402.324V82.58H401.01V85.28H398.931V86.414H401.01V91.481C401.01 91.955 401.016 92.378 401.028 92.75C401.046 93.122 401.142 93.485 401.316 93.839C401.532 94.271 401.847 94.589 402.261 94.793C402.681 94.997 403.155 95.111 403.683 95.135C404.217 95.159 404.757 95.114 405.303 95ZM410.925 95.27C411.885 95.27 412.707 95.054 413.391 94.622C414.081 94.19 414.609 93.59 414.975 92.822C415.347 92.048 415.533 91.151 415.533 90.131C415.533 89.129 415.35 88.244 414.984 87.476C414.624 86.702 414.099 86.099 413.409 85.667C412.725 85.229 411.897 85.01 410.925 85.01C409.977 85.01 409.158 85.226 408.468 85.658C407.784 86.084 407.256 86.681 406.884 87.449C406.512 88.217 406.326 89.111 406.326 90.131C406.326 91.133 406.506 92.021 406.866 92.795C407.232 93.569 407.757 94.175 408.441 94.613C409.131 95.051 409.959 95.27 410.925 95.27ZM410.925 94.001C409.875 94.001 409.08 93.65 408.54 92.948C408 92.24 407.73 91.301 407.73 90.131C407.73 88.997 407.991 88.073 408.513 87.359C409.035 86.639 409.839 86.279 410.925 86.279C411.999 86.279 412.8 86.63 413.328 87.332C413.862 88.028 414.129 88.961 414.129 90.131C414.129 91.277 413.865 92.21 413.337 92.93C412.809 93.644 412.005 94.001 410.925 94.001ZM424.893 95.27C425.601 95.27 426.222 95.126 426.756 94.838C427.29 94.544 427.731 94.145 428.079 93.641V95H429.267V82.04H427.935V86.423C427.581 85.979 427.143 85.634 426.621 85.388C426.105 85.136 425.511 85.01 424.839 85.01C423.951 85.01 423.189 85.235 422.553 85.685C421.917 86.135 421.428 86.747 421.086 87.521C420.75 88.295 420.582 89.165 420.582 90.131C420.582 91.103 420.75 91.976 421.086 92.75C421.428 93.524 421.92 94.139 422.562 94.595C423.21 95.045 423.987 95.27 424.893 95.27ZM425.028 94.037C424.356 94.037 423.792 93.866 423.336 93.524C422.886 93.176 422.547 92.708 422.319 92.12C422.097 91.532 421.986 90.869 421.986 90.131C421.986 89.399 422.097 88.739 422.319 88.151C422.541 87.563 422.877 87.098 423.327 86.756C423.783 86.414 424.359 86.243 425.055 86.243C426.069 86.243 426.825 86.606 427.323 87.332C427.827 88.052 428.079 88.985 428.079 90.131C428.079 90.881 427.968 91.55 427.746 92.138C427.524 92.726 427.188 93.191 426.738 93.533C426.288 93.869 425.718 94.037 425.028 94.037ZM435.905 95.27C436.847 95.27 437.69 95.039 438.434 94.577C439.184 94.115 439.751 93.458 440.135 92.606L438.902 92.129C438.284 93.377 437.267 94.001 435.851 94.001C434.879 94.001 434.117 93.698 433.565 93.092C433.019 92.486 432.719 91.625 432.665 90.509H440.324C440.372 88.793 439.997 87.449 439.199 86.477C438.407 85.499 437.291 85.01 435.851 85.01C434.915 85.01 434.102 85.22 433.412 85.64C432.728 86.06 432.197 86.657 431.819 87.431C431.441 88.205 431.252 89.123 431.252 90.185C431.252 91.211 431.441 92.105 431.819 92.867C432.203 93.629 432.743 94.22 433.439 94.64C434.141 95.06 434.963 95.27 435.905 95.27ZM435.887 86.225C437.717 86.225 438.734 87.284 438.938 89.402H432.692C432.794 88.376 433.118 87.59 433.664 87.044C434.21 86.498 434.951 86.225 435.887 86.225ZM442.049 95H443.381V88.727C443.381 87.965 443.588 87.356 444.002 86.9C444.416 86.438 444.959 86.207 445.631 86.207C446.303 86.207 446.843 86.432 447.251 86.882C447.665 87.326 447.872 87.935 447.872 88.709L447.863 95H449.168L449.177 88.727C449.177 88.121 449.288 87.635 449.51 87.269C449.738 86.897 450.026 86.627 450.374 86.459C450.722 86.291 451.079 86.207 451.445 86.207C452.087 86.207 452.615 86.423 453.029 86.855C453.449 87.281 453.659 87.869 453.659 88.619L453.65 95H454.973L454.982 88.367C454.982 87.341 454.688 86.528 454.1 85.928C453.518 85.322 452.735 85.019 451.751 85.019C451.103 85.019 450.521 85.166 450.005 85.46C449.489 85.748 449.09 86.147 448.808 86.657C448.544 86.123 448.163 85.718 447.665 85.442C447.173 85.16 446.609 85.019 445.973 85.019C445.397 85.019 444.872 85.136 444.398 85.37C443.924 85.598 443.537 85.91 443.237 86.306V85.28H442.049V95ZM461.304 95.27C462.264 95.27 463.086 95.054 463.77 94.622C464.46 94.19 464.988 93.59 465.354 92.822C465.726 92.048 465.912 91.151 465.912 90.131C465.912 89.129 465.729 88.244 465.363 87.476C465.003 86.702 464.478 86.099 463.788 85.667C463.104 85.229 462.276 85.01 461.304 85.01C460.356 85.01 459.537 85.226 458.847 85.658C458.163 86.084 457.635 86.681 457.263 87.449C456.891 88.217 456.705 89.111 456.705 90.131C456.705 91.133 456.885 92.021 457.245 92.795C457.611 93.569 458.136 94.175 458.82 94.613C459.51 95.051 460.338 95.27 461.304 95.27ZM461.304 94.001C460.254 94.001 459.459 93.65 458.919 92.948C458.379 92.24 458.109 91.301 458.109 90.131C458.109 88.997 458.37 88.073 458.892 87.359C459.414 86.639 460.218 86.279 461.304 86.279C462.378 86.279 463.179 86.63 463.707 87.332C464.241 88.028 464.508 88.961 464.508 90.131C464.508 91.277 464.244 92.21 463.716 92.93C463.188 93.644 462.384 94.001 461.304 94.001ZM467.889 95H469.221V89.816C469.221 88.718 469.467 87.857 469.959 87.233C470.451 86.609 471.165 86.297 472.101 86.297C472.779 86.297 473.325 86.462 473.739 86.792C474.153 87.116 474.453 87.56 474.639 88.124C474.825 88.688 474.918 89.327 474.918 90.041V95H476.25V89.654C476.25 89.108 476.181 88.562 476.043 88.016C475.911 87.47 475.695 86.972 475.395 86.522C475.095 86.072 474.696 85.712 474.198 85.442C473.7 85.172 473.085 85.037 472.353 85.037C471.657 85.037 471.027 85.172 470.463 85.442C469.905 85.706 469.446 86.102 469.086 86.63V85.28H467.889V95ZM482.212 95.261C483.406 95.261 484.342 95 485.02 94.478C485.704 93.95 486.046 93.227 486.046 92.309C486.046 91.805 485.938 91.382 485.722 91.04C485.512 90.698 485.149 90.401 484.633 90.149C484.123 89.897 483.421 89.657 482.527 89.429C481.765 89.237 481.177 89.06 480.763 88.898C480.355 88.736 480.073 88.565 479.917 88.385C479.761 88.199 479.683 87.977 479.683 87.719C479.683 87.257 479.899 86.888 480.331 86.612C480.763 86.336 481.324 86.204 482.014 86.216C482.746 86.228 483.349 86.402 483.823 86.738C484.297 87.068 484.582 87.518 484.678 88.088L486.028 87.845C485.962 87.281 485.752 86.786 485.398 86.36C485.044 85.934 484.576 85.604 483.994 85.37C483.418 85.13 482.764 85.01 482.032 85.01C481.3 85.01 480.655 85.127 480.097 85.361C479.545 85.589 479.113 85.913 478.801 86.333C478.495 86.747 478.342 87.23 478.342 87.782C478.342 88.232 478.444 88.616 478.648 88.934C478.858 89.246 479.215 89.525 479.719 89.771C480.223 90.011 480.913 90.251 481.789 90.491C482.611 90.713 483.226 90.905 483.634 91.067C484.048 91.229 484.324 91.406 484.462 91.598C484.6 91.784 484.669 92.027 484.669 92.327C484.669 92.855 484.456 93.275 484.03 93.587C483.604 93.899 483.022 94.055 482.284 94.055C481.528 94.055 480.892 93.893 480.376 93.569C479.86 93.239 479.533 92.798 479.395 92.246L478.045 92.471C478.213 93.347 478.663 94.031 479.395 94.523C480.133 95.015 481.072 95.261 482.212 95.261ZM493.334 95V93.839C492.638 93.953 492.053 93.971 491.579 93.893C491.111 93.815 490.769 93.575 490.553 93.173C490.439 92.963 490.376 92.723 490.364 92.453C490.358 92.177 490.355 91.835 490.355 91.427V86.414H493.334V85.28H490.355V82.58H489.041V85.28H486.962V86.414H489.041V91.481C489.041 91.955 489.047 92.378 489.059 92.75C489.077 93.122 489.173 93.485 489.347 93.839C489.563 94.271 489.878 94.589 490.292 94.793C490.712 94.997 491.186 95.111 491.714 95.135C492.248 95.159 492.788 95.114 493.334 95ZM495.249 95H496.572V90.149C496.572 89.567 496.638 88.988 496.77 88.412C496.908 87.83 497.22 87.347 497.706 86.963C498.06 86.675 498.444 86.51 498.858 86.468C499.278 86.42 499.668 86.438 500.028 86.522V85.28C499.602 85.172 499.119 85.169 498.579 85.271C498.039 85.367 497.577 85.583 497.193 85.919C496.905 86.135 496.653 86.435 496.437 86.819V85.28H495.249V95ZM504.165 95.27C505.863 95.27 507.096 94.643 507.864 93.389V95H509.043V88.961C509.043 88.601 509.025 88.247 508.989 87.899C508.953 87.551 508.875 87.236 508.755 86.954C508.497 86.324 508.056 85.844 507.432 85.514C506.814 85.178 506.061 85.01 505.173 85.01C504.105 85.01 503.235 85.25 502.563 85.73C501.891 86.21 501.441 86.885 501.213 87.755L502.5 88.133C502.686 87.485 503.007 87.011 503.463 86.711C503.925 86.411 504.489 86.261 505.155 86.261C506.079 86.261 506.739 86.477 507.135 86.909C507.531 87.335 507.735 87.986 507.747 88.862C507.315 88.922 506.838 88.985 506.316 89.051C505.8 89.117 505.281 89.192 504.759 89.276C504.237 89.36 503.757 89.456 503.319 89.564C502.593 89.756 501.999 90.077 501.537 90.527C501.075 90.971 500.844 91.592 500.844 92.39C500.844 92.906 500.967 93.383 501.213 93.821C501.459 94.259 501.828 94.61 502.32 94.874C502.818 95.138 503.433 95.27 504.165 95.27ZM504.318 94.127C503.796 94.127 503.376 94.043 503.058 93.875C502.746 93.701 502.518 93.482 502.374 93.218C502.236 92.948 502.167 92.672 502.167 92.39C502.167 91.862 502.344 91.466 502.698 91.202C503.052 90.938 503.436 90.746 503.85 90.626C504.384 90.482 505.005 90.365 505.713 90.275C506.421 90.185 507.093 90.101 507.729 90.023C507.729 90.245 507.72 90.5 507.702 90.788C507.69 91.07 507.657 91.331 507.603 91.571C507.477 92.303 507.129 92.912 506.559 93.398C505.995 93.884 505.248 94.127 504.318 94.127ZM516.678 95V93.839C515.982 93.953 515.397 93.971 514.923 93.893C514.455 93.815 514.113 93.575 513.897 93.173C513.783 92.963 513.72 92.723 513.708 92.453C513.702 92.177 513.699 91.835 513.699 91.427V86.414H516.678V85.28H513.699V82.58H512.385V85.28H510.306V86.414H512.385V91.481C512.385 91.955 512.391 92.378 512.403 92.75C512.421 93.122 512.517 93.485 512.691 93.839C512.907 94.271 513.222 94.589 513.636 94.793C514.056 94.997 514.53 95.111 515.058 95.135C515.592 95.159 516.132 95.114 516.678 95ZM522.354 95.27C523.296 95.27 524.139 95.039 524.883 94.577C525.633 94.115 526.2 93.458 526.584 92.606L525.351 92.129C524.733 93.377 523.716 94.001 522.3 94.001C521.328 94.001 520.566 93.698 520.014 93.092C519.468 92.486 519.168 91.625 519.114 90.509H526.773C526.821 88.793 526.446 87.449 525.648 86.477C524.856 85.499 523.74 85.01 522.3 85.01C521.364 85.01 520.551 85.22 519.861 85.64C519.177 86.06 518.646 86.657 518.268 87.431C517.89 88.205 517.701 89.123 517.701 90.185C517.701 91.211 517.89 92.105 518.268 92.867C518.652 93.629 519.192 94.22 519.888 94.64C520.59 95.06 521.412 95.27 522.354 95.27ZM522.336 86.225C524.166 86.225 525.183 87.284 525.387 89.402H519.141C519.243 88.376 519.567 87.59 520.113 87.044C520.659 86.498 521.4 86.225 522.336 86.225ZM33.0686 127V125.839C32.3726 125.953 31.7876 125.971 31.3136 125.893C30.8456 125.815 30.5036 125.575 30.2876 125.173C30.1736 124.963 30.1106 124.723 30.0986 124.453C30.0926 124.177 30.0896 123.835 30.0896 123.427V118.414H33.0686V117.28H30.0896V114.58H28.7756V117.28H26.6966V118.414H28.7756V123.481C28.7756 123.955 28.7816 124.378 28.7936 124.75C28.8116 125.122 28.9076 125.485 29.0816 125.839C29.2976 126.271 29.6126 126.589 30.0266 126.793C30.4466 126.997 30.9206 127.111 31.4486 127.135C31.9826 127.159 32.5226 127.114 33.0686 127ZM34.9746 127H36.3066V121.816C36.3066 120.718 36.5526 119.857 37.0446 119.233C37.5366 118.609 38.2506 118.297 39.1866 118.297C39.8646 118.297 40.4106 118.462 40.8246 118.792C41.2386 119.116 41.5386 119.56 41.7246 120.124C41.9106 120.688 42.0036 121.327 42.0036 122.041V127H43.3356V121.654C43.3356 121.108 43.2666 120.562 43.1286 120.016C42.9966 119.47 42.7806 118.972 42.4806 118.522C42.1806 118.072 41.7816 117.712 41.2836 117.442C40.7856 117.172 40.1706 117.037 39.4386 117.037C38.7426 117.037 38.1126 117.172 37.5486 117.442C36.9906 117.706 36.5316 118.102 36.1716 118.63V114.04H34.9746V127ZM49.7841 127.27C50.7261 127.27 51.5691 127.039 52.3131 126.577C53.0631 126.115 53.6301 125.458 54.0141 124.606L52.7811 124.129C52.1631 125.377 51.1461 126.001 49.7301 126.001C48.7581 126.001 47.9961 125.698 47.4441 125.092C46.8981 124.486 46.5981 123.625 46.5441 122.509H54.2031C54.2511 120.793 53.8761 119.449 53.0781 118.477C52.2861 117.499 51.1701 117.01 49.7301 117.01C48.7941 117.01 47.9811 117.22 47.2911 117.64C46.6071 118.06 46.0761 118.657 45.6981 119.431C45.3201 120.205 45.1311 121.123 45.1311 122.185C45.1311 123.211 45.3201 124.105 45.6981 124.867C46.0821 125.629 46.6221 126.22 47.3181 126.64C48.0201 127.06 48.8421 127.27 49.7841 127.27ZM49.7661 118.225C51.5961 118.225 52.6131 119.284 52.8171 121.402H46.5711C46.6731 120.376 46.9971 119.59 47.5431 119.044C48.0891 118.498 48.8301 118.225 49.7661 118.225ZM63.5749 127.27C64.2289 127.27 64.8109 127.144 65.3209 126.892C65.8309 126.64 66.2599 126.292 66.6079 125.848V126.847C66.6139 127.987 66.3889 128.848 65.9329 129.43C65.4769 130.012 64.7209 130.303 63.6649 130.303C63.1549 130.303 62.6539 130.183 62.1619 129.943C61.6699 129.709 61.2919 129.322 61.0279 128.782L59.8309 129.448C60.2449 130.204 60.7999 130.75 61.4959 131.086C62.1979 131.422 62.9209 131.59 63.6649 131.59C64.8529 131.59 65.8009 131.332 66.5089 130.816C67.2169 130.3 67.6579 129.499 67.8319 128.413C67.8739 128.167 67.9009 127.915 67.9129 127.657C67.9309 127.405 67.9399 127.141 67.9399 126.865V117.28H66.7609V118.621C66.4069 118.117 65.9569 117.724 65.4109 117.442C64.8709 117.154 64.2409 117.01 63.5209 117.01C62.6329 117.01 61.8709 117.235 61.2349 117.685C60.5989 118.135 60.1099 118.747 59.7679 119.521C59.4319 120.295 59.2639 121.165 59.2639 122.131C59.2639 123.103 59.4319 123.976 59.7679 124.75C60.1099 125.524 60.6019 126.139 61.2439 126.595C61.8919 127.045 62.6689 127.27 63.5749 127.27ZM63.7099 126.037C63.0379 126.037 62.4739 125.866 62.0179 125.524C61.5679 125.176 61.2289 124.708 61.0009 124.12C60.7789 123.532 60.6679 122.869 60.6679 122.131C60.6679 121.399 60.7789 120.739 61.0009 120.151C61.2229 119.563 61.5589 119.098 62.0089 118.756C62.4649 118.414 63.0409 118.243 63.7369 118.243C64.7509 118.243 65.5069 118.606 66.0049 119.332C66.5089 120.052 66.7609 120.985 66.7609 122.131C66.7609 122.881 66.6499 123.55 66.4279 124.138C66.2059 124.726 65.8699 125.191 65.4199 125.533C64.9699 125.869 64.3999 126.037 63.7099 126.037ZM70.4563 127H71.7793V122.149C71.7793 121.567 71.8453 120.988 71.9773 120.412C72.1153 119.83 72.4273 119.347 72.9133 118.963C73.2673 118.675 73.6513 118.51 74.0653 118.468C74.4853 118.42 74.8753 118.438 75.2353 118.522V117.28C74.8093 117.172 74.3263 117.169 73.7863 117.271C73.2463 117.367 72.7843 117.583 72.4003 117.919C72.1123 118.135 71.8603 118.435 71.6443 118.819V117.28H70.4563V127ZM79.3721 127.27C81.0701 127.27 82.3031 126.643 83.0711 125.389V127H84.2501V120.961C84.2501 120.601 84.2321 120.247 84.1961 119.899C84.1601 119.551 84.0821 119.236 83.9621 118.954C83.7041 118.324 83.2631 117.844 82.6391 117.514C82.0211 117.178 81.2681 117.01 80.3801 117.01C79.3121 117.01 78.4421 117.25 77.7701 117.73C77.0981 118.21 76.6481 118.885 76.4201 119.755L77.7071 120.133C77.8931 119.485 78.2141 119.011 78.6701 118.711C79.1321 118.411 79.6961 118.261 80.3621 118.261C81.2861 118.261 81.9461 118.477 82.3421 118.909C82.7381 119.335 82.9421 119.986 82.9541 120.862C82.5221 120.922 82.0451 120.985 81.5231 121.051C81.0071 121.117 80.4881 121.192 79.9661 121.276C79.4441 121.36 78.9641 121.456 78.5261 121.564C77.8001 121.756 77.2061 122.077 76.7441 122.527C76.2821 122.971 76.0511 123.592 76.0511 124.39C76.0511 124.906 76.1741 125.383 76.4201 125.821C76.6661 126.259 77.0351 126.61 77.5271 126.874C78.0251 127.138 78.6401 127.27 79.3721 127.27ZM79.5251 126.127C79.0031 126.127 78.5831 126.043 78.2651 125.875C77.9531 125.701 77.7251 125.482 77.5811 125.218C77.4431 124.948 77.3741 124.672 77.3741 124.39C77.3741 123.862 77.5511 123.466 77.9051 123.202C78.2591 122.938 78.6431 122.746 79.0571 122.626C79.5911 122.482 80.2121 122.365 80.9201 122.275C81.6281 122.185 82.3001 122.101 82.9361 122.023C82.9361 122.245 82.9271 122.5 82.9091 122.788C82.8971 123.07 82.8641 123.331 82.8101 123.571C82.6841 124.303 82.3361 124.912 81.7661 125.398C81.2021 125.884 80.4551 126.127 79.5251 126.127ZM86.584 131.32H87.916V125.839C88.264 126.283 88.693 126.634 89.203 126.892C89.713 127.144 90.298 127.27 90.958 127.27C91.87 127.27 92.647 127.045 93.289 126.595C93.931 126.139 94.42 125.524 94.756 124.75C95.098 123.976 95.269 123.103 95.269 122.131C95.269 121.165 95.098 120.295 94.756 119.521C94.42 118.747 93.934 118.135 93.298 117.685C92.662 117.235 91.9 117.01 91.012 117.01C90.292 117.01 89.659 117.154 89.113 117.442C88.573 117.724 88.126 118.117 87.772 118.621V117.28H86.584V131.32ZM90.823 126.037C90.133 126.037 89.563 125.869 89.113 125.533C88.663 125.191 88.327 124.726 88.105 124.138C87.883 123.55 87.772 122.881 87.772 122.131C87.772 120.985 88.021 120.052 88.519 119.332C89.023 118.606 89.782 118.243 90.796 118.243C91.492 118.243 92.065 118.414 92.515 118.756C92.971 119.098 93.31 119.563 93.532 120.151C93.754 120.739 93.865 121.399 93.865 122.131C93.865 122.869 93.751 123.532 93.523 124.12C93.301 124.708 92.965 125.176 92.515 125.524C92.065 125.866 91.501 126.037 90.823 126.037ZM97.2364 127H98.5684V121.816C98.5684 120.718 98.8144 119.857 99.3064 119.233C99.7984 118.609 100.512 118.297 101.448 118.297C102.126 118.297 102.672 118.462 103.086 118.792C103.5 119.116 103.8 119.56 103.986 120.124C104.172 120.688 104.265 121.327 104.265 122.041V127H105.597V121.654C105.597 121.108 105.528 120.562 105.39 120.016C105.258 119.47 105.042 118.972 104.742 118.522C104.442 118.072 104.043 117.712 103.545 117.442C103.047 117.172 102.432 117.037 101.7 117.037C101.004 117.037 100.374 117.172 99.8104 117.442C99.2524 117.706 98.7934 118.102 98.4334 118.63V114.04H97.2364V127ZM108.113 115.435H109.436V113.95H108.113V115.435ZM108.113 127H109.436V117.28H108.113V127ZM116.166 127.27C117.132 127.27 117.96 127.045 118.65 126.595C119.346 126.139 119.877 125.479 120.243 124.615L118.911 124.219C118.419 125.407 117.504 126.001 116.166 126.001C115.122 126.001 114.336 125.65 113.808 124.948C113.28 124.24 113.01 123.304 112.998 122.14C113.01 121.006 113.271 120.079 113.781 119.359C114.297 118.639 115.092 118.279 116.166 118.279C116.802 118.279 117.366 118.441 117.858 118.765C118.356 119.083 118.719 119.533 118.947 120.115L120.243 119.701C119.973 118.867 119.472 118.21 118.74 117.73C118.014 117.25 117.159 117.01 116.175 117.01C115.209 117.01 114.387 117.226 113.709 117.658C113.031 118.084 112.512 118.684 112.152 119.458C111.792 120.226 111.606 121.12 111.594 122.14C111.606 123.136 111.786 124.021 112.134 124.795C112.488 125.569 113.004 126.175 113.682 126.613C114.36 127.051 115.188 127.27 116.166 127.27ZM129.817 127.27C130.759 127.27 131.602 127.039 132.346 126.577C133.096 126.115 133.663 125.458 134.047 124.606L132.814 124.129C132.196 125.377 131.179 126.001 129.763 126.001C128.791 126.001 128.029 125.698 127.477 125.092C126.931 124.486 126.631 123.625 126.577 122.509H134.236C134.284 120.793 133.909 119.449 133.111 118.477C132.319 117.499 131.203 117.01 129.763 117.01C128.827 117.01 128.014 117.22 127.324 117.64C126.64 118.06 126.109 118.657 125.731 119.431C125.353 120.205 125.164 121.123 125.164 122.185C125.164 123.211 125.353 124.105 125.731 124.867C126.115 125.629 126.655 126.22 127.351 126.64C128.053 127.06 128.875 127.27 129.817 127.27ZM129.799 118.225C131.629 118.225 132.646 119.284 132.85 121.402H126.604C126.706 120.376 127.03 119.59 127.576 119.044C128.122 118.498 128.863 118.225 129.799 118.225ZM136.414 127H137.737V113.77H136.414V127ZM144.548 127.27C145.49 127.27 146.333 127.039 147.077 126.577C147.827 126.115 148.394 125.458 148.778 124.606L147.545 124.129C146.927 125.377 145.91 126.001 144.494 126.001C143.522 126.001 142.76 125.698 142.208 125.092C141.662 124.486 141.362 123.625 141.308 122.509H148.967C149.015 120.793 148.64 119.449 147.842 118.477C147.05 117.499 145.934 117.01 144.494 117.01C143.558 117.01 142.745 117.22 142.055 117.64C141.371 118.06 140.84 118.657 140.462 119.431C140.084 120.205 139.895 121.123 139.895 122.185C139.895 123.211 140.084 124.105 140.462 124.867C140.846 125.629 141.386 126.22 142.082 126.64C142.784 127.06 143.606 127.27 144.548 127.27ZM144.53 118.225C146.36 118.225 147.377 119.284 147.581 121.402H141.335C141.437 120.376 141.761 119.59 142.307 119.044C142.853 118.498 143.594 118.225 144.53 118.225ZM150.691 127H152.023V120.727C152.023 119.965 152.23 119.356 152.644 118.9C153.058 118.438 153.601 118.207 154.273 118.207C154.945 118.207 155.485 118.432 155.893 118.882C156.307 119.326 156.514 119.935 156.514 120.709L156.505 127H157.81L157.819 120.727C157.819 120.121 157.93 119.635 158.152 119.269C158.38 118.897 158.668 118.627 159.016 118.459C159.364 118.291 159.721 118.207 160.087 118.207C160.729 118.207 161.257 118.423 161.671 118.855C162.091 119.281 162.301 119.869 162.301 120.619L162.292 127H163.615L163.624 120.367C163.624 119.341 163.33 118.528 162.742 117.928C162.16 117.322 161.377 117.019 160.393 117.019C159.745 117.019 159.163 117.166 158.647 117.46C158.131 117.748 157.732 118.147 157.45 118.657C157.186 118.123 156.805 117.718 156.307 117.442C155.815 117.16 155.251 117.019 154.615 117.019C154.039 117.019 153.514 117.136 153.04 117.37C152.566 117.598 152.179 117.91 151.879 118.306V117.28H150.691V127ZM170.001 127.27C170.943 127.27 171.786 127.039 172.53 126.577C173.28 126.115 173.847 125.458 174.231 124.606L172.998 124.129C172.38 125.377 171.363 126.001 169.947 126.001C168.975 126.001 168.213 125.698 167.661 125.092C167.115 124.486 166.815 123.625 166.761 122.509H174.42C174.468 120.793 174.093 119.449 173.295 118.477C172.503 117.499 171.387 117.01 169.947 117.01C169.011 117.01 168.198 117.22 167.508 117.64C166.824 118.06 166.293 118.657 165.915 119.431C165.537 120.205 165.348 121.123 165.348 122.185C165.348 123.211 165.537 124.105 165.915 124.867C166.299 125.629 166.839 126.22 167.535 126.64C168.237 127.06 169.059 127.27 170.001 127.27ZM169.983 118.225C171.813 118.225 172.83 119.284 173.034 121.402H166.788C166.89 120.376 167.214 119.59 167.76 119.044C168.306 118.498 169.047 118.225 169.983 118.225ZM176.145 127H177.477V121.816C177.477 120.718 177.723 119.857 178.215 119.233C178.707 118.609 179.421 118.297 180.357 118.297C181.035 118.297 181.581 118.462 181.995 118.792C182.409 119.116 182.709 119.56 182.895 120.124C183.081 120.688 183.174 121.327 183.174 122.041V127H184.506V121.654C184.506 121.108 184.437 120.562 184.299 120.016C184.167 119.47 183.951 118.972 183.651 118.522C183.351 118.072 182.952 117.712 182.454 117.442C181.956 117.172 181.341 117.037 180.609 117.037C179.913 117.037 179.283 117.172 178.719 117.442C178.161 117.706 177.702 118.102 177.342 118.63V117.28H176.145V127ZM192.133 127V125.839C191.437 125.953 190.852 125.971 190.378 125.893C189.91 125.815 189.568 125.575 189.352 125.173C189.238 124.963 189.175 124.723 189.163 124.453C189.157 124.177 189.154 123.835 189.154 123.427V118.414H192.133V117.28H189.154V114.58H187.84V117.28H185.761V118.414H187.84V123.481C187.84 123.955 187.846 124.378 187.858 124.75C187.876 125.122 187.972 125.485 188.146 125.839C188.362 126.271 188.677 126.589 189.091 126.793C189.511 126.997 189.985 127.111 190.513 127.135C191.047 127.159 191.587 127.114 192.133 127ZM197.675 127.261C198.869 127.261 199.805 127 200.483 126.478C201.167 125.95 201.509 125.227 201.509 124.309C201.509 123.805 201.401 123.382 201.185 123.04C200.975 122.698 200.612 122.401 200.096 122.149C199.586 121.897 198.884 121.657 197.99 121.429C197.228 121.237 196.64 121.06 196.226 120.898C195.818 120.736 195.536 120.565 195.38 120.385C195.224 120.199 195.146 119.977 195.146 119.719C195.146 119.257 195.362 118.888 195.794 118.612C196.226 118.336 196.787 118.204 197.477 118.216C198.209 118.228 198.812 118.402 199.286 118.738C199.76 119.068 200.045 119.518 200.141 120.088L201.491 119.845C201.425 119.281 201.215 118.786 200.861 118.36C200.507 117.934 200.039 117.604 199.457 117.37C198.881 117.13 198.227 117.01 197.495 117.01C196.763 117.01 196.118 117.127 195.56 117.361C195.008 117.589 194.576 117.913 194.264 118.333C193.958 118.747 193.805 119.23 193.805 119.782C193.805 120.232 193.907 120.616 194.111 120.934C194.321 121.246 194.678 121.525 195.182 121.771C195.686 122.011 196.376 122.251 197.252 122.491C198.074 122.713 198.689 122.905 199.097 123.067C199.511 123.229 199.787 123.406 199.925 123.598C200.063 123.784 200.132 124.027 200.132 124.327C200.132 124.855 199.919 125.275 199.493 125.587C199.067 125.899 198.485 126.055 197.747 126.055C196.991 126.055 196.355 125.893 195.839 125.569C195.323 125.239 194.996 124.798 194.858 124.246L193.508 124.471C193.676 125.347 194.126 126.031 194.858 126.523C195.596 127.015 196.535 127.261 197.675 127.261ZM211.168 127.27C212.128 127.27 212.95 127.054 213.634 126.622C214.324 126.19 214.852 125.59 215.218 124.822C215.59 124.048 215.776 123.151 215.776 122.131C215.776 121.129 215.593 120.244 215.227 119.476C214.867 118.702 214.342 118.099 213.652 117.667C212.968 117.229 212.14 117.01 211.168 117.01C210.22 117.01 209.401 117.226 208.711 117.658C208.027 118.084 207.499 118.681 207.127 119.449C206.755 120.217 206.569 121.111 206.569 122.131C206.569 123.133 206.749 124.021 207.109 124.795C207.475 125.569 208 126.175 208.684 126.613C209.374 127.051 210.202 127.27 211.168 127.27ZM211.168 126.001C210.118 126.001 209.323 125.65 208.783 124.948C208.243 124.24 207.973 123.301 207.973 122.131C207.973 120.997 208.234 120.073 208.756 119.359C209.278 118.639 210.082 118.279 211.168 118.279C212.242 118.279 213.043 118.63 213.571 119.332C214.105 120.028 214.372 120.961 214.372 122.131C214.372 123.277 214.108 124.21 213.58 124.93C213.052 125.644 212.248 126.001 211.168 126.001ZM218.724 127H220.047V118.414H222.702V117.28H220.047V116.416C220.047 115.396 220.548 114.886 221.55 114.886H222.702V113.77H221.46C221.088 113.77 220.713 113.809 220.335 113.887C219.957 113.965 219.621 114.163 219.327 114.481C219.063 114.769 218.895 115.096 218.823 115.462C218.757 115.822 218.724 116.188 218.724 116.56V117.28H217.041V118.414H218.724V127ZM230.526 127.27C232.224 127.27 233.457 126.643 234.225 125.389V127H235.404V120.961C235.404 120.601 235.386 120.247 235.35 119.899C235.314 119.551 235.236 119.236 235.116 118.954C234.858 118.324 234.417 117.844 233.793 117.514C233.175 117.178 232.422 117.01 231.534 117.01C230.466 117.01 229.596 117.25 228.924 117.73C228.252 118.21 227.802 118.885 227.574 119.755L228.861 120.133C229.047 119.485 229.368 119.011 229.824 118.711C230.286 118.411 230.85 118.261 231.516 118.261C232.44 118.261 233.1 118.477 233.496 118.909C233.892 119.335 234.096 119.986 234.108 120.862C233.676 120.922 233.199 120.985 232.677 121.051C232.161 121.117 231.642 121.192 231.12 121.276C230.598 121.36 230.118 121.456 229.68 121.564C228.954 121.756 228.36 122.077 227.898 122.527C227.436 122.971 227.205 123.592 227.205 124.39C227.205 124.906 227.328 125.383 227.574 125.821C227.82 126.259 228.189 126.61 228.681 126.874C229.179 127.138 229.794 127.27 230.526 127.27ZM230.679 126.127C230.157 126.127 229.737 126.043 229.419 125.875C229.107 125.701 228.879 125.482 228.735 125.218C228.597 124.948 228.528 124.672 228.528 124.39C228.528 123.862 228.705 123.466 229.059 123.202C229.413 122.938 229.797 122.746 230.211 122.626C230.745 122.482 231.366 122.365 232.074 122.275C232.782 122.185 233.454 122.101 234.09 122.023C234.09 122.245 234.081 122.5 234.063 122.788C234.051 123.07 234.018 123.331 233.964 123.571C233.838 124.303 233.49 124.912 232.92 125.398C232.356 125.884 231.609 126.127 230.679 126.127ZM245.122 127.27C245.83 127.27 246.451 127.126 246.985 126.838C247.519 126.544 247.96 126.145 248.308 125.641V127H249.496V114.04H248.164V118.423C247.81 117.979 247.372 117.634 246.85 117.388C246.334 117.136 245.74 117.01 245.068 117.01C244.18 117.01 243.418 117.235 242.782 117.685C242.146 118.135 241.657 118.747 241.315 119.521C240.979 120.295 240.811 121.165 240.811 122.131C240.811 123.103 240.979 123.976 241.315 124.75C241.657 125.524 242.149 126.139 242.791 126.595C243.439 127.045 244.216 127.27 245.122 127.27ZM245.257 126.037C244.585 126.037 244.021 125.866 243.565 125.524C243.115 125.176 242.776 124.708 242.548 124.12C242.326 123.532 242.215 122.869 242.215 122.131C242.215 121.399 242.326 120.739 242.548 120.151C242.77 119.563 243.106 119.098 243.556 118.756C244.012 118.414 244.588 118.243 245.284 118.243C246.298 118.243 247.054 118.606 247.552 119.332C248.056 120.052 248.308 120.985 248.308 122.131C248.308 122.881 248.197 123.55 247.975 124.138C247.753 124.726 247.417 125.191 246.967 125.533C246.517 125.869 245.947 126.037 245.257 126.037ZM256.08 127.27C257.04 127.27 257.862 127.054 258.546 126.622C259.236 126.19 259.764 125.59 260.13 124.822C260.502 124.048 260.688 123.151 260.688 122.131C260.688 121.129 260.505 120.244 260.139 119.476C259.779 118.702 259.254 118.099 258.564 117.667C257.88 117.229 257.052 117.01 256.08 117.01C255.132 117.01 254.313 117.226 253.623 117.658C252.939 118.084 252.411 118.681 252.039 119.449C251.667 120.217 251.481 121.111 251.481 122.131C251.481 123.133 251.661 124.021 252.021 124.795C252.387 125.569 252.912 126.175 253.596 126.613C254.286 127.051 255.114 127.27 256.08 127.27ZM256.08 126.001C255.03 126.001 254.235 125.65 253.695 124.948C253.155 124.24 252.885 123.301 252.885 122.131C252.885 120.997 253.146 120.073 253.668 119.359C254.19 118.639 254.994 118.279 256.08 118.279C257.154 118.279 257.955 118.63 258.483 119.332C259.017 120.028 259.284 120.961 259.284 122.131C259.284 123.277 259.02 124.21 258.492 124.93C257.964 125.644 257.16 126.001 256.08 126.001ZM266.705 127.27C267.671 127.27 268.499 127.045 269.189 126.595C269.885 126.139 270.416 125.479 270.782 124.615L269.45 124.219C268.958 125.407 268.043 126.001 266.705 126.001C265.661 126.001 264.875 125.65 264.347 124.948C263.819 124.24 263.549 123.304 263.537 122.14C263.549 121.006 263.81 120.079 264.32 119.359C264.836 118.639 265.631 118.279 266.705 118.279C267.341 118.279 267.905 118.441 268.397 118.765C268.895 119.083 269.258 119.533 269.486 120.115L270.782 119.701C270.512 118.867 270.011 118.21 269.279 117.73C268.553 117.25 267.698 117.01 266.714 117.01C265.748 117.01 264.926 117.226 264.248 117.658C263.57 118.084 263.051 118.684 262.691 119.458C262.331 120.226 262.145 121.12 262.133 122.14C262.145 123.136 262.325 124.021 262.673 124.795C263.027 125.569 263.543 126.175 264.221 126.613C264.899 127.051 265.727 127.27 266.705 127.27ZM276.357 127.243C277.053 127.243 277.68 127.111 278.238 126.847C278.802 126.577 279.264 126.178 279.624 125.65V127H280.812V117.28H279.489V122.464C279.489 123.562 279.243 124.423 278.751 125.047C278.259 125.671 277.545 125.983 276.609 125.983C275.931 125.983 275.385 125.821 274.971 125.497C274.557 125.167 274.257 124.72 274.071 124.156C273.885 123.592 273.792 122.953 273.792 122.239V117.28H272.46V122.626C272.46 123.172 272.526 123.718 272.658 124.264C272.796 124.81 273.015 125.308 273.315 125.758C273.615 126.208 274.014 126.568 274.512 126.838C275.016 127.108 275.631 127.243 276.357 127.243ZM283.318 127H284.65V120.727C284.65 119.965 284.857 119.356 285.271 118.9C285.685 118.438 286.228 118.207 286.9 118.207C287.572 118.207 288.112 118.432 288.52 118.882C288.934 119.326 289.141 119.935 289.141 120.709L289.132 127H290.437L290.446 120.727C290.446 120.121 290.557 119.635 290.779 119.269C291.007 118.897 291.295 118.627 291.643 118.459C291.991 118.291 292.348 118.207 292.714 118.207C293.356 118.207 293.884 118.423 294.298 118.855C294.718 119.281 294.928 119.869 294.928 120.619L294.919 127H296.242L296.251 120.367C296.251 119.341 295.957 118.528 295.369 117.928C294.787 117.322 294.004 117.019 293.02 117.019C292.372 117.019 291.79 117.166 291.274 117.46C290.758 117.748 290.359 118.147 290.077 118.657C289.813 118.123 289.432 117.718 288.934 117.442C288.442 117.16 287.878 117.019 287.242 117.019C286.666 117.019 286.141 117.136 285.667 117.37C285.193 117.598 284.806 117.91 284.506 118.306V117.28H283.318V127ZM302.628 127.27C303.57 127.27 304.413 127.039 305.157 126.577C305.907 126.115 306.474 125.458 306.858 124.606L305.625 124.129C305.007 125.377 303.99 126.001 302.574 126.001C301.602 126.001 300.84 125.698 300.288 125.092C299.742 124.486 299.442 123.625 299.388 122.509H307.047C307.095 120.793 306.72 119.449 305.922 118.477C305.13 117.499 304.014 117.01 302.574 117.01C301.638 117.01 300.825 117.22 300.135 117.64C299.451 118.06 298.92 118.657 298.542 119.431C298.164 120.205 297.975 121.123 297.975 122.185C297.975 123.211 298.164 124.105 298.542 124.867C298.926 125.629 299.466 126.22 300.162 126.64C300.864 127.06 301.686 127.27 302.628 127.27ZM302.61 118.225C304.44 118.225 305.457 119.284 305.661 121.402H299.415C299.517 120.376 299.841 119.59 300.387 119.044C300.933 118.498 301.674 118.225 302.61 118.225ZM308.772 127H310.104V121.816C310.104 120.718 310.35 119.857 310.842 119.233C311.334 118.609 312.048 118.297 312.984 118.297C313.662 118.297 314.208 118.462 314.622 118.792C315.036 119.116 315.336 119.56 315.522 120.124C315.708 120.688 315.801 121.327 315.801 122.041V127H317.133V121.654C317.133 121.108 317.064 120.562 316.926 120.016C316.794 119.47 316.578 118.972 316.278 118.522C315.978 118.072 315.579 117.712 315.081 117.442C314.583 117.172 313.968 117.037 313.236 117.037C312.54 117.037 311.91 117.172 311.346 117.442C310.788 117.706 310.329 118.102 309.969 118.63V117.28H308.772V127ZM324.76 127V125.839C324.064 125.953 323.479 125.971 323.005 125.893C322.537 125.815 322.195 125.575 321.979 125.173C321.865 124.963 321.802 124.723 321.79 124.453C321.784 124.177 321.781 123.835 321.781 123.427V118.414H324.76V117.28H321.781V114.58H320.467V117.28H318.388V118.414H320.467V123.481C320.467 123.955 320.473 124.378 320.485 124.75C320.503 125.122 320.599 125.485 320.773 125.839C320.989 126.271 321.304 126.589 321.718 126.793C322.138 126.997 322.612 127.111 323.14 127.135C323.674 127.159 324.214 127.114 324.76 127ZM334.338 127.27C335.298 127.27 336.12 127.054 336.804 126.622C337.494 126.19 338.022 125.59 338.388 124.822C338.76 124.048 338.946 123.151 338.946 122.131C338.946 121.129 338.763 120.244 338.397 119.476C338.037 118.702 337.512 118.099 336.822 117.667C336.138 117.229 335.31 117.01 334.338 117.01C333.39 117.01 332.571 117.226 331.881 117.658C331.197 118.084 330.669 118.681 330.297 119.449C329.925 120.217 329.739 121.111 329.739 122.131C329.739 123.133 329.919 124.021 330.279 124.795C330.645 125.569 331.17 126.175 331.854 126.613C332.544 127.051 333.372 127.27 334.338 127.27ZM334.338 126.001C333.288 126.001 332.493 125.65 331.953 124.948C331.413 124.24 331.143 123.301 331.143 122.131C331.143 120.997 331.404 120.073 331.926 119.359C332.448 118.639 333.252 118.279 334.338 118.279C335.412 118.279 336.213 118.63 336.741 119.332C337.275 120.028 337.542 120.961 337.542 122.131C337.542 123.277 337.278 124.21 336.75 124.93C336.222 125.644 335.418 126.001 334.338 126.001ZM340.931 127H342.254V122.149C342.254 121.567 342.32 120.988 342.452 120.412C342.59 119.83 342.902 119.347 343.388 118.963C343.742 118.675 344.126 118.51 344.54 118.468C344.96 118.42 345.35 118.438 345.71 118.522V117.28C345.284 117.172 344.801 117.169 344.261 117.271C343.721 117.367 343.259 117.583 342.875 117.919C342.587 118.135 342.335 118.435 342.119 118.819V117.28H340.931V127ZM353.649 127H355.017L358.545 117.28H357.186L354.333 125.272L351.462 117.28H350.121L353.649 127ZM360.341 115.435H361.664V113.95H360.341V115.435ZM360.341 127H361.664V117.28H360.341V127ZM367.99 127.261C369.184 127.261 370.12 127 370.798 126.478C371.482 125.95 371.824 125.227 371.824 124.309C371.824 123.805 371.716 123.382 371.5 123.04C371.29 122.698 370.927 122.401 370.411 122.149C369.901 121.897 369.199 121.657 368.305 121.429C367.543 121.237 366.955 121.06 366.541 120.898C366.133 120.736 365.851 120.565 365.695 120.385C365.539 120.199 365.461 119.977 365.461 119.719C365.461 119.257 365.677 118.888 366.109 118.612C366.541 118.336 367.102 118.204 367.792 118.216C368.524 118.228 369.127 118.402 369.601 118.738C370.075 119.068 370.36 119.518 370.456 120.088L371.806 119.845C371.74 119.281 371.53 118.786 371.176 118.36C370.822 117.934 370.354 117.604 369.772 117.37C369.196 117.13 368.542 117.01 367.81 117.01C367.078 117.01 366.433 117.127 365.875 117.361C365.323 117.589 364.891 117.913 364.579 118.333C364.273 118.747 364.12 119.23 364.12 119.782C364.12 120.232 364.222 120.616 364.426 120.934C364.636 121.246 364.993 121.525 365.497 121.771C366.001 122.011 366.691 122.251 367.567 122.491C368.389 122.713 369.004 122.905 369.412 123.067C369.826 123.229 370.102 123.406 370.24 123.598C370.378 123.784 370.447 124.027 370.447 124.327C370.447 124.855 370.234 125.275 369.808 125.587C369.382 125.899 368.8 126.055 368.062 126.055C367.306 126.055 366.67 125.893 366.154 125.569C365.638 125.239 365.311 124.798 365.173 124.246L363.823 124.471C363.991 125.347 364.441 126.031 365.173 126.523C365.911 127.015 366.85 127.261 367.99 127.261ZM377.537 127.243C378.233 127.243 378.86 127.111 379.418 126.847C379.982 126.577 380.444 126.178 380.804 125.65V127H381.992V117.28H380.669V122.464C380.669 123.562 380.423 124.423 379.931 125.047C379.439 125.671 378.725 125.983 377.789 125.983C377.111 125.983 376.565 125.821 376.151 125.497C375.737 125.167 375.437 124.72 375.251 124.156C375.065 123.592 374.972 122.953 374.972 122.239V117.28H373.64V122.626C373.64 123.172 373.706 123.718 373.838 124.264C373.976 124.81 374.195 125.308 374.495 125.758C374.795 126.208 375.194 126.568 375.692 126.838C376.196 127.108 376.811 127.243 377.537 127.243ZM387.288 127.27C388.986 127.27 390.219 126.643 390.987 125.389V127H392.166V120.961C392.166 120.601 392.148 120.247 392.112 119.899C392.076 119.551 391.998 119.236 391.878 118.954C391.62 118.324 391.179 117.844 390.555 117.514C389.937 117.178 389.184 117.01 388.296 117.01C387.228 117.01 386.358 117.25 385.686 117.73C385.014 118.21 384.564 118.885 384.336 119.755L385.623 120.133C385.809 119.485 386.13 119.011 386.586 118.711C387.048 118.411 387.612 118.261 388.278 118.261C389.202 118.261 389.862 118.477 390.258 118.909C390.654 119.335 390.858 119.986 390.87 120.862C390.438 120.922 389.961 120.985 389.439 121.051C388.923 121.117 388.404 121.192 387.882 121.276C387.36 121.36 386.88 121.456 386.442 121.564C385.716 121.756 385.122 122.077 384.66 122.527C384.198 122.971 383.967 123.592 383.967 124.39C383.967 124.906 384.09 125.383 384.336 125.821C384.582 126.259 384.951 126.61 385.443 126.874C385.941 127.138 386.556 127.27 387.288 127.27ZM387.441 126.127C386.919 126.127 386.499 126.043 386.181 125.875C385.869 125.701 385.641 125.482 385.497 125.218C385.359 124.948 385.29 124.672 385.29 124.39C385.29 123.862 385.467 123.466 385.821 123.202C386.175 122.938 386.559 122.746 386.973 122.626C387.507 122.482 388.128 122.365 388.836 122.275C389.544 122.185 390.216 122.101 390.852 122.023C390.852 122.245 390.843 122.5 390.825 122.788C390.813 123.07 390.78 123.331 390.726 123.571C390.6 124.303 390.252 124.912 389.682 125.398C389.118 125.884 388.371 126.127 387.441 126.127ZM394.689 127H396.012V113.77H394.689V127ZM402.305 131.32H403.637V125.839C403.985 126.283 404.414 126.634 404.924 126.892C405.434 127.144 406.019 127.27 406.679 127.27C407.591 127.27 408.368 127.045 409.01 126.595C409.652 126.139 410.141 125.524 410.477 124.75C410.819 123.976 410.99 123.103 410.99 122.131C410.99 121.165 410.819 120.295 410.477 119.521C410.141 118.747 409.655 118.135 409.019 117.685C408.383 117.235 407.621 117.01 406.733 117.01C406.013 117.01 405.38 117.154 404.834 117.442C404.294 117.724 403.847 118.117 403.493 118.621V117.28H402.305V131.32ZM406.544 126.037C405.854 126.037 405.284 125.869 404.834 125.533C404.384 125.191 404.048 124.726 403.826 124.138C403.604 123.55 403.493 122.881 403.493 122.131C403.493 120.985 403.742 120.052 404.24 119.332C404.744 118.606 405.503 118.243 406.517 118.243C407.213 118.243 407.786 118.414 408.236 118.756C408.692 119.098 409.031 119.563 409.253 120.151C409.475 120.739 409.586 121.399 409.586 122.131C409.586 122.869 409.472 123.532 409.244 124.12C409.022 124.708 408.686 125.176 408.236 125.524C407.786 125.866 407.222 126.037 406.544 126.037ZM412.966 127H414.289V122.149C414.289 121.567 414.355 120.988 414.487 120.412C414.625 119.83 414.937 119.347 415.423 118.963C415.777 118.675 416.161 118.51 416.575 118.468C416.995 118.42 417.385 118.438 417.745 118.522V117.28C417.319 117.172 416.836 117.169 416.296 117.271C415.756 117.367 415.294 117.583 414.91 117.919C414.622 118.135 414.37 118.435 414.154 118.819V117.28H412.966V127ZM423.39 127.27C424.332 127.27 425.175 127.039 425.919 126.577C426.669 126.115 427.236 125.458 427.62 124.606L426.387 124.129C425.769 125.377 424.752 126.001 423.336 126.001C422.364 126.001 421.602 125.698 421.05 125.092C420.504 124.486 420.204 123.625 420.15 122.509H427.809C427.857 120.793 427.482 119.449 426.684 118.477C425.892 117.499 424.776 117.01 423.336 117.01C422.4 117.01 421.587 117.22 420.897 117.64C420.213 118.06 419.682 118.657 419.304 119.431C418.926 120.205 418.737 121.123 418.737 122.185C418.737 123.211 418.926 124.105 419.304 124.867C419.688 125.629 420.228 126.22 420.924 126.64C421.626 127.06 422.448 127.27 423.39 127.27ZM423.372 118.225C425.202 118.225 426.219 119.284 426.423 121.402H420.177C420.279 120.376 420.603 119.59 421.149 119.044C421.695 118.498 422.436 118.225 423.372 118.225ZM433.433 127.261C434.627 127.261 435.563 127 436.241 126.478C436.925 125.95 437.267 125.227 437.267 124.309C437.267 123.805 437.159 123.382 436.943 123.04C436.733 122.698 436.37 122.401 435.854 122.149C435.344 121.897 434.642 121.657 433.748 121.429C432.986 121.237 432.398 121.06 431.984 120.898C431.576 120.736 431.294 120.565 431.138 120.385C430.982 120.199 430.904 119.977 430.904 119.719C430.904 119.257 431.12 118.888 431.552 118.612C431.984 118.336 432.545 118.204 433.235 118.216C433.967 118.228 434.57 118.402 435.044 118.738C435.518 119.068 435.803 119.518 435.899 120.088L437.249 119.845C437.183 119.281 436.973 118.786 436.619 118.36C436.265 117.934 435.797 117.604 435.215 117.37C434.639 117.13 433.985 117.01 433.253 117.01C432.521 117.01 431.876 117.127 431.318 117.361C430.766 117.589 430.334 117.913 430.022 118.333C429.716 118.747 429.563 119.23 429.563 119.782C429.563 120.232 429.665 120.616 429.869 120.934C430.079 121.246 430.436 121.525 430.94 121.771C431.444 122.011 432.134 122.251 433.01 122.491C433.832 122.713 434.447 122.905 434.855 123.067C435.269 123.229 435.545 123.406 435.683 123.598C435.821 123.784 435.89 124.027 435.89 124.327C435.89 124.855 435.677 125.275 435.251 125.587C434.825 125.899 434.243 126.055 433.505 126.055C432.749 126.055 432.113 125.893 431.597 125.569C431.081 125.239 430.754 124.798 430.616 124.246L429.266 124.471C429.434 125.347 429.884 126.031 430.616 126.523C431.354 127.015 432.293 127.261 433.433 127.261ZM443.376 127.27C444.318 127.27 445.161 127.039 445.905 126.577C446.655 126.115 447.222 125.458 447.606 124.606L446.373 124.129C445.755 125.377 444.738 126.001 443.322 126.001C442.35 126.001 441.588 125.698 441.036 125.092C440.49 124.486 440.19 123.625 440.136 122.509H447.795C447.843 120.793 447.468 119.449 446.67 118.477C445.878 117.499 444.762 117.01 443.322 117.01C442.386 117.01 441.573 117.22 440.883 117.64C440.199 118.06 439.668 118.657 439.29 119.431C438.912 120.205 438.723 121.123 438.723 122.185C438.723 123.211 438.912 124.105 439.29 124.867C439.674 125.629 440.214 126.22 440.91 126.64C441.612 127.06 442.434 127.27 443.376 127.27ZM443.358 118.225C445.188 118.225 446.205 119.284 446.409 121.402H440.163C440.265 120.376 440.589 119.59 441.135 119.044C441.681 118.498 442.422 118.225 443.358 118.225ZM449.52 127H450.852V121.816C450.852 120.718 451.098 119.857 451.59 119.233C452.082 118.609 452.796 118.297 453.732 118.297C454.41 118.297 454.956 118.462 455.37 118.792C455.784 119.116 456.084 119.56 456.27 120.124C456.456 120.688 456.549 121.327 456.549 122.041V127H457.881V121.654C457.881 121.108 457.812 120.562 457.674 120.016C457.542 119.47 457.326 118.972 457.026 118.522C456.726 118.072 456.327 117.712 455.829 117.442C455.331 117.172 454.716 117.037 453.984 117.037C453.288 117.037 452.658 117.172 452.094 117.442C451.536 117.706 451.077 118.102 450.717 118.63V117.28H449.52V127ZM465.508 127V125.839C464.812 125.953 464.227 125.971 463.753 125.893C463.285 125.815 462.943 125.575 462.727 125.173C462.613 124.963 462.55 124.723 462.538 124.453C462.532 124.177 462.529 123.835 462.529 123.427V118.414H465.508V117.28H462.529V114.58H461.215V117.28H459.136V118.414H461.215V123.481C461.215 123.955 461.221 124.378 461.233 124.75C461.251 125.122 461.347 125.485 461.521 125.839C461.737 126.271 462.052 126.589 462.466 126.793C462.886 126.997 463.36 127.111 463.888 127.135C464.422 127.159 464.962 127.114 465.508 127ZM470.204 127.27C471.902 127.27 473.135 126.643 473.903 125.389V127H475.082V120.961C475.082 120.601 475.064 120.247 475.028 119.899C474.992 119.551 474.914 119.236 474.794 118.954C474.536 118.324 474.095 117.844 473.471 117.514C472.853 117.178 472.1 117.01 471.212 117.01C470.144 117.01 469.274 117.25 468.602 117.73C467.93 118.21 467.48 118.885 467.252 119.755L468.539 120.133C468.725 119.485 469.046 119.011 469.502 118.711C469.964 118.411 470.528 118.261 471.194 118.261C472.118 118.261 472.778 118.477 473.174 118.909C473.57 119.335 473.774 119.986 473.786 120.862C473.354 120.922 472.877 120.985 472.355 121.051C471.839 121.117 471.32 121.192 470.798 121.276C470.276 121.36 469.796 121.456 469.358 121.564C468.632 121.756 468.038 122.077 467.576 122.527C467.114 122.971 466.883 123.592 466.883 124.39C466.883 124.906 467.006 125.383 467.252 125.821C467.498 126.259 467.867 126.61 468.359 126.874C468.857 127.138 469.472 127.27 470.204 127.27ZM470.357 126.127C469.835 126.127 469.415 126.043 469.097 125.875C468.785 125.701 468.557 125.482 468.413 125.218C468.275 124.948 468.206 124.672 468.206 124.39C468.206 123.862 468.383 123.466 468.737 123.202C469.091 122.938 469.475 122.746 469.889 122.626C470.423 122.482 471.044 122.365 471.752 122.275C472.46 122.185 473.132 122.101 473.768 122.023C473.768 122.245 473.759 122.5 473.741 122.788C473.729 123.07 473.696 123.331 473.642 123.571C473.516 124.303 473.168 124.912 472.598 125.398C472.034 125.884 471.287 126.127 470.357 126.127ZM482.717 127V125.839C482.021 125.953 481.436 125.971 480.962 125.893C480.494 125.815 480.152 125.575 479.936 125.173C479.822 124.963 479.759 124.723 479.747 124.453C479.741 124.177 479.738 123.835 479.738 123.427V118.414H482.717V117.28H479.738V114.58H478.424V117.28H476.345V118.414H478.424V123.481C478.424 123.955 478.43 124.378 478.442 124.75C478.46 125.122 478.556 125.485 478.73 125.839C478.946 126.271 479.261 126.589 479.675 126.793C480.095 126.997 480.569 127.111 481.097 127.135C481.631 127.159 482.171 127.114 482.717 127ZM484.812 115.435H486.135V113.95H484.812V115.435ZM484.812 127H486.135V117.28H484.812V127ZM492.892 127.27C493.852 127.27 494.674 127.054 495.358 126.622C496.048 126.19 496.576 125.59 496.942 124.822C497.314 124.048 497.5 123.151 497.5 122.131C497.5 121.129 497.317 120.244 496.951 119.476C496.591 118.702 496.066 118.099 495.376 117.667C494.692 117.229 493.864 117.01 492.892 117.01C491.944 117.01 491.125 117.226 490.435 117.658C489.751 118.084 489.223 118.681 488.851 119.449C488.479 120.217 488.293 121.111 488.293 122.131C488.293 123.133 488.473 124.021 488.833 124.795C489.199 125.569 489.724 126.175 490.408 126.613C491.098 127.051 491.926 127.27 492.892 127.27ZM492.892 126.001C491.842 126.001 491.047 125.65 490.507 124.948C489.967 124.24 489.697 123.301 489.697 122.131C489.697 120.997 489.958 120.073 490.48 119.359C491.002 118.639 491.806 118.279 492.892 118.279C493.966 118.279 494.767 118.63 495.295 119.332C495.829 120.028 496.096 120.961 496.096 122.131C496.096 123.277 495.832 124.21 495.304 124.93C494.776 125.644 493.972 126.001 492.892 126.001ZM499.477 127H500.809V121.816C500.809 120.718 501.055 119.857 501.547 119.233C502.039 118.609 502.753 118.297 503.689 118.297C504.367 118.297 504.913 118.462 505.327 118.792C505.741 119.116 506.041 119.56 506.227 120.124C506.413 120.688 506.506 121.327 506.506 122.041V127H507.838V121.654C507.838 121.108 507.769 120.562 507.631 120.016C507.499 119.47 507.283 118.972 506.983 118.522C506.683 118.072 506.284 117.712 505.786 117.442C505.288 117.172 504.673 117.037 503.941 117.037C503.245 117.037 502.615 117.172 502.051 117.442C501.493 117.706 501.034 118.102 500.674 118.63V117.28H499.477V127ZM510.425 127H511.964V125.461H510.425V127Z" fill="#18191F"/>
</svg>
